<svg width="37" height="38" viewBox="0 0 37 38" fill="none" xmlns="http://www.w3.org/2000/svg">
<circle cx="10" cy="10" r="10" fill="#F4F4F4"/>
<mask id="mask0" mask-type="alpha" maskUnits="userSpaceOnUse" x="2" y="3" width="35" height="35">
<rect x="2" y="3" width="35" height="35" fill="#C4C4C4"/>
</mask>
<g mask="url(#mask0)">
<path d="M25.6167 24.0124C25.6167 23.2195 25.2134 22.5198 24.5988 22.111C23.9869 22.5225 23.5808 23.2195 23.5808 24.0124C23.5808 24.8054 23.9841 25.5051 24.5988 25.9139C25.2134 25.5051 25.6167 24.8054 25.6167 24.0124Z" fill="#666666"/>
<path d="M23.5808 24.0124C23.5808 24.8054 23.9841 25.5051 24.5988 25.9139C25.2134 25.5023 25.6167 24.8054 25.6167 24.0124C25.6167 23.2195 25.2134 22.5198 24.5988 22.111C23.9841 22.5198 23.5808 23.2195 23.5808 24.0124Z" fill="#666666"/>
<path d="M30.3333 14.2966V13.3994C30.3333 12.3814 29.5074 11.5555 28.4895 11.5555H8.84384C7.82589 11.5555 7 12.3814 7 13.3994V26.951C7 27.969 7.82589 28.7949 8.84384 28.7949H28.4895C29.5074 28.7949 30.3333 27.969 30.3333 26.951V17.2627H8.57495V14.2966H30.3333ZM23.3284 21.7241C23.8003 21.7241 24.2366 21.8668 24.5988 22.111C24.9637 21.8668 25.4 21.7241 25.8692 21.7241C27.1341 21.7241 28.1575 22.7475 28.1575 24.0124C28.1575 25.2773 27.1341 26.3008 25.8692 26.3008C25.3972 26.3008 24.961 26.1581 24.5988 25.9139C24.2366 26.1581 23.7976 26.3008 23.3284 26.3008C22.0635 26.3008 21.0401 25.2773 21.0401 24.0124C21.0401 22.7503 22.0635 21.7241 23.3284 21.7241ZM9.17309 24.7423H16.8859V26.298H9.17309V24.7423Z" fill="#666666"/>
</g>
</svg>
