<svg width="37" height="38" viewBox="0 0 37 38" fill="none" xmlns="http://www.w3.org/2000/svg">
<circle cx="10" cy="10" r="10" fill="#F4F4F4"/>
<mask id="mask0" mask-type="alpha" maskUnits="userSpaceOnUse" x="2" y="3" width="35" height="35">
<rect x="2" y="3" width="35" height="35" fill="#C4C4C4"/>
</mask>
<g mask="url(#mask0)">
<path d="M25.6167 24.0125C25.6167 23.2196 25.2134 22.5199 24.5988 22.1111C23.9869 22.5227 23.5808 23.2196 23.5808 24.0125C23.5808 24.8055 23.9841 25.5052 24.5988 25.914C25.2134 25.5052 25.6167 24.8055 25.6167 24.0125Z" fill="#3A80D1"/>
<path d="M23.5808 24.0125C23.5808 24.8055 23.9841 25.5052 24.5988 25.914C25.2134 25.5024 25.6167 24.8055 25.6167 24.0125C25.6167 23.2196 25.2134 22.5199 24.5988 22.1111C23.9841 22.5199 23.5808 23.2196 23.5808 24.0125Z" fill="#3A80D1"/>
<path d="M30.3333 14.2967V13.3995C30.3333 12.3815 29.5074 11.5557 28.4895 11.5557H8.84384C7.82589 11.5557 7 12.3815 7 13.3995V26.9512C7 27.9691 7.82589 28.795 8.84384 28.795H28.4895C29.5074 28.795 30.3333 27.9691 30.3333 26.9512V17.2628H8.57495V14.2967H30.3333ZM23.3284 21.7242C23.8003 21.7242 24.2366 21.8669 24.5988 22.1111C24.9637 21.8669 25.4 21.7242 25.8692 21.7242C27.1341 21.7242 28.1575 22.7477 28.1575 24.0125C28.1575 25.2774 27.1341 26.3009 25.8692 26.3009C25.3972 26.3009 24.961 26.1582 24.5988 25.914C24.2366 26.1582 23.7976 26.3009 23.3284 26.3009C22.0635 26.3009 21.0401 25.2774 21.0401 24.0125C21.0401 22.7504 22.0635 21.7242 23.3284 21.7242ZM9.17309 24.7424H16.8859V26.2981H9.17309V24.7424Z" fill="#3A80D1"/>
</g>
</svg>
