<svg width="35" height="35" viewBox="0 0 35 35" fill="none" xmlns="http://www.w3.org/2000/svg">
<mask id="mask0" mask-type="alpha" maskUnits="userSpaceOnUse" x="0" y="0" width="35" height="35">
<rect width="35" height="35" fill="#C4C4C4"/>
</mask>
<g mask="url(#mask0)">
<path d="M8.23216 19.0956H8.44106V20.8569C8.44106 21.4079 8.88766 21.8545 9.43872 21.8545H13.4078C13.9588 21.8545 14.4054 21.4079 14.4054 20.8569V19.0956H14.6143C15.1654 19.0956 15.612 18.649 15.612 18.098V15.9442C13.595 15.7497 12.0211 14.0533 12.0211 11.9859C12.0211 9.91859 13.5986 8.2222 15.612 8.02771V6.19806C15.612 5.64701 15.1654 5.2004 14.6143 5.2004H14.4054V2.74766C14.4054 2.19661 13.9588 1.75 13.4078 1.75H9.43872C8.88766 1.75 8.44106 2.19661 8.44106 2.74766V5.2004H8.23216C7.6811 5.2004 7.2345 5.64701 7.2345 6.19806V18.098C7.2345 18.649 7.6811 19.0956 8.23216 19.0956ZM10.44 3.74532H12.4101V5.2004H10.44V3.74532ZM10.44 19.0956H12.4101V19.8592H10.44V19.0956Z" fill="#12A3CC"/>
<path d="M29.6369 30.5598L27.3643 28.7085C27.1878 28.5644 26.9645 28.4852 26.734 28.4852H23.7194C24.1444 28.1683 24.555 27.8189 24.9403 27.4335C29.2299 23.1439 29.2299 16.1603 24.9403 11.8707C23.0747 10.005 20.694 8.95335 18.252 8.71204C19.048 9.25949 19.6351 10.0951 19.8656 11.0675C21.2054 11.4889 22.4696 12.2237 23.5285 13.2862C27.0401 16.7978 27.0401 22.5136 23.5285 26.0253C22.2139 27.3399 20.5967 28.1611 18.8967 28.4888H15.4211C14.1209 28.2367 12.8675 27.6928 11.7618 26.8645H16.5989C17.1499 26.8645 17.5965 26.4178 17.5965 25.8668V24.5846C17.5965 24.0335 17.1499 23.5869 16.5989 23.5869H6.24766C5.69661 23.5797 5.25 24.0263 5.25 24.5774V25.8596C5.25 26.4106 5.69661 26.8572 6.24766 26.8572H9.09658C9.1254 27.0661 9.21544 27.2678 9.37751 27.4299C9.76289 27.8153 10.1735 28.1647 10.5985 28.4816H10.2563C9.70527 28.4816 9.25866 28.9282 9.25866 29.4793V31.3773C9.25866 31.9284 9.70527 32.375 10.2563 32.375H29.0606H29.0642C29.6153 32.375 30.0619 31.9284 30.0619 31.3773C30.0655 31.0424 29.8962 30.7398 29.6369 30.5598Z" fill="#12A3CC"/>
<path d="M16.5548 14.7844C18.1003 14.4786 19.1053 12.9779 18.7995 11.4324C18.4937 9.88696 16.993 8.88199 15.4475 9.18778C13.902 9.49357 12.8971 10.9943 13.2028 12.5398C13.5086 14.0853 15.0094 15.0902 16.5548 14.7844Z" fill="#12A3CC"/>
</g>
</svg>
