<svg width="35" height="35" viewBox="0 0 35 35" fill="none" xmlns="http://www.w3.org/2000/svg">
<mask id="mask0" mask-type="alpha" maskUnits="userSpaceOnUse" x="0" y="0" width="35" height="35">
<rect width="35" height="35" fill="#C4C4C4"/>
</mask>
<g mask="url(#mask0)">
<path d="M16.6171 9.18537C16.6171 7.92372 16.3008 6.73479 15.7481 5.69493L9.13083 12.3122C8.93086 12.5122 8.66544 12.614 8.40002 12.614C8.1346 12.614 7.87282 12.5122 7.66921 12.3122L4.9423 9.58532C4.53872 9.18173 4.53872 8.52728 4.9423 8.12733C5.34588 7.72375 6.00034 7.72375 6.40029 8.12733L8.39639 10.1234L14.3047 4.21876C14.3774 4.14604 14.4647 4.08787 14.5519 4.04424C13.1957 2.62988 11.2942 1.75 9.18537 1.75C5.07683 1.75 1.75 5.08046 1.75 9.18537C1.75 13.2903 5.07683 16.6207 9.18537 16.6207C13.2903 16.6171 16.6171 13.2903 16.6171 9.18537Z" fill="#EF8448"/>
<path d="M31.5461 6.78573L19.4604 2.68446C19.2059 2.5972 18.9296 2.5972 18.6751 2.68446L16.5372 3.408C17.0498 4.06246 17.4825 4.786 17.8097 5.56044L19.0678 5.13141L29.9281 8.82183V17.7988C29.9281 23.6271 25.8741 28.2338 19.0641 30.1753C12.5232 28.3138 8.53098 23.9871 8.22193 18.486C7.36023 18.3987 6.53125 18.1915 5.75317 17.8824C5.79317 24.936 10.6398 30.4444 18.7442 32.6259C18.8496 32.655 18.955 32.6695 19.0641 32.6695C19.1696 32.6695 19.2786 32.655 19.3841 32.6259C27.5175 30.4335 32.3751 24.8924 32.3751 17.7988V7.94558C32.3751 7.42201 32.0406 6.95662 31.5461 6.78573Z" fill="#EF8448"/>
<path d="M12.2032 18.035C11.4324 18.2968 10.6179 18.4641 9.77441 18.515C10.1053 23.0925 13.4067 26.6375 18.7514 28.0773C18.8568 28.1064 18.9623 28.1209 19.0714 28.1209C19.1768 28.1209 19.2859 28.1064 19.3913 28.0773C25.0233 26.5575 28.3901 22.6962 28.3901 17.7478V11.145C28.3901 10.6215 28.0556 10.1524 27.5575 9.98519L19.4568 7.23647C19.2022 7.14921 18.9259 7.14921 18.6714 7.23647L18.3514 7.34554C18.4714 7.94183 18.5332 8.55629 18.5332 9.1853C18.5332 9.41799 18.5223 9.65069 18.5042 9.87975L19.0641 9.69068V25.6267C14.8028 24.376 12.3268 21.6309 12.2032 18.035Z" fill="#EF8448"/>
</g>
</svg>
