<svg width="35" height="35" viewBox="0 0 35 35" fill="none" xmlns="http://www.w3.org/2000/svg">
<mask id="mask0" mask-type="alpha" maskUnits="userSpaceOnUse" x="0" y="0" width="35" height="35">
<rect width="35" height="35" fill="#C4C4C4"/>
</mask>
<g mask="url(#mask0)">
<path d="M28.5613 26.09L22.9612 16.6217V10.1541C24.1097 9.74046 24.9308 8.64144 24.9308 7.3541C24.9308 5.71173 23.5941 4.375 21.9517 4.375H13.1534C11.511 4.375 10.1743 5.71173 10.1743 7.3541C10.1743 8.64144 10.9985 9.74046 12.1439 10.1541V16.6217L6.54379 26.09C5.99428 27.0161 5.98502 28.1738 6.5191 29.1092C7.05317 30.0446 8.05341 30.625 9.13082 30.625H25.9743C27.0517 30.625 28.0519 30.0446 28.586 29.1092C29.1201 28.1738 29.1108 27.0192 28.5613 26.09ZM20.5841 17.6219L21.9857 19.9929H13.1194L14.521 17.6219C14.6383 17.4244 14.7 17.199 14.7 16.9706V10.3332H20.4082V16.9706C20.4082 17.199 20.4699 17.4244 20.5841 17.6219ZM13.1534 6.92807H21.9517C22.1864 6.92807 22.3778 7.11947 22.3778 7.3541C22.3778 7.58872 22.1864 7.78012 21.9517 7.78012H13.1534C12.9188 7.78012 12.7273 7.58872 12.7273 7.3541C12.7304 7.11947 12.9188 6.92807 13.1534 6.92807Z" fill="#12A3CC"/>
</g>
</svg>
