<svg width="35" height="35" viewBox="0 0 35 35" fill="none" xmlns="http://www.w3.org/2000/svg">
<mask id="mask0" mask-type="alpha" maskUnits="userSpaceOnUse" x="0" y="0" width="35" height="35">
<rect width="35" height="35" fill="#C4C4C4"/>
</mask>
<g mask="url(#mask0)">
<path d="M9.49316 17.5747C9.49316 18.5225 10.2615 19.2908 11.2093 19.2908C12.1571 19.2908 12.9254 18.5225 12.9254 17.5747C12.9254 16.6268 12.1571 15.8585 11.2093 15.8585C10.2615 15.8585 9.49316 16.6268 9.49316 17.5747Z" fill="#EF8448"/>
<path d="M14.8103 17.5747C14.8103 18.5225 15.5786 19.2908 16.5264 19.2908C17.4743 19.2908 18.2426 18.5225 18.2426 17.5747C18.2426 16.6268 17.4743 15.8585 16.5264 15.8585C15.5786 15.8585 14.8103 16.6268 14.8103 17.5747Z" fill="#EF8448"/>
<path d="M20.1238 17.5747C20.1238 18.5225 20.8921 19.2908 21.8399 19.2908C22.7877 19.2908 23.556 18.5225 23.556 17.5747C23.556 16.6268 22.7877 15.8585 21.8399 15.8585C20.8921 15.8585 20.1238 16.6268 20.1238 17.5747Z" fill="#EF8448"/>
<path d="M32.5748 8.02471C32.5641 7.85597 32.5174 7.68723 32.4312 7.52926L30.1371 3.27124C29.9217 2.87273 29.5052 2.625 29.0564 2.625C28.604 2.625 28.1876 2.87273 27.9758 3.27124L25.6816 7.52926C25.5954 7.68723 25.5523 7.85597 25.538 8.0283C25.5057 8.13601 25.4841 8.2509 25.4841 8.36938V8.78943H32.6251V8.36938C32.6251 8.24731 32.6036 8.13601 32.5748 8.02471Z" fill="#EF8448"/>
<path d="M25.4841 31.8961C25.4841 32.5926 26.0478 33.1563 26.7443 33.1563H31.3649C32.0614 33.1563 32.6251 32.5926 32.6251 31.8961V10.6096H25.4841V31.8961ZM28.0045 28.6864H30.1048V30.6216H28.0045V28.6864Z" fill="#EF8448"/>
<path d="M2.625 17.3881C2.625 20.5439 3.83491 23.5417 6.04649 25.9149L4.60322 29.7385C4.47038 30.0939 4.50269 30.4888 4.69298 30.8191C4.88326 31.1458 5.21356 31.372 5.58694 31.4295C5.63362 31.4366 6.06085 31.5013 6.72146 31.5013C7.94932 31.5013 10.2291 31.2751 12.3725 29.8318C13.8158 30.2734 15.3165 30.496 16.8423 30.496C19.4201 30.496 21.8399 29.8569 23.9259 28.744V25.8036C21.9584 27.1643 19.5027 27.9757 16.8423 27.9757C15.3739 27.9757 13.9414 27.7315 12.5771 27.2468C12.1678 27.1032 11.7155 27.175 11.3744 27.4443C10.0891 28.4567 8.66018 28.8194 7.60466 28.9342L8.6925 26.0513C8.87201 25.5774 8.74994 25.0424 8.38015 24.6906C6.29422 22.7088 5.14534 20.1166 5.14534 17.3881C5.14534 11.5503 10.3907 6.80045 16.8387 6.80045C19.4991 6.80045 21.9548 7.61184 23.9223 8.97254V8.78944V8.36938C23.9223 8.16833 23.9474 7.96368 23.9941 7.75186C24.0372 7.41079 24.1413 7.08767 24.3028 6.78968L24.5254 6.3768C22.3067 5.05559 19.6678 4.28369 16.8351 4.28369C9.00126 4.2801 2.625 10.1609 2.625 17.3881Z" fill="#EF8448"/>
</g>
</svg>
