<?xml version="1.0" encoding="utf-8"?>
<!-- Generator: Adobe Illustrator 16.0.0, SVG Export Plug-In . SVG Version: 6.00 Build 0)  -->
<!DOCTYPE svg PUBLIC "-//W3C//DTD SVG 1.1//EN" "http://www.w3.org/Graphics/SVG/1.1/DTD/svg11.dtd">
<svg version="1.1" id="Layer_1" xmlns="http://www.w3.org/2000/svg" xmlns:xlink="http://www.w3.org/1999/xlink" x="0px" y="0px"
	 width="35px" height="35px" viewBox="35 35 35 35" enable-background="new 35 35 35 35" xml:space="preserve">
<g>
	<defs>
		<rect id="SVGID_1_" x="35" y="35" width="35" height="35"/>
	</defs>
	<clipPath id="SVGID_2_">
		<use xlink:href="#SVGID_1_"  overflow="visible"/>
	</clipPath>
	<defs>
		<filter id="Adobe_OpacityMaskFilter" filterUnits="userSpaceOnUse" x="38.437" y="39.992" width="28.688" height="25.308">
			<feColorMatrix  type="matrix" values="1 0 0 0 0  0 1 0 0 0  0 0 1 0 0  0 0 0 1 0"/>
		</filter>
	</defs>
	<mask maskUnits="userSpaceOnUse" x="38.437" y="39.992" width="28.688" height="25.308" id="mask0">
		<rect x="35" y="35" clip-path="url(#SVGID_2_)" fill="#FFFFFF" filter="url(#Adobe_OpacityMaskFilter)" width="35" height="35"/>
	</mask>
	<g clip-path="url(#SVGID_2_)" mask="url(#mask0)">
		<path fill="#EF8448" d="M66,65.3h-4.471c-0.621,0-1.125-0.504-1.125-1.125s0.504-1.125,1.125-1.125h3.064l-4.469-19.858
			c-0.086-0.386-0.424-0.656-0.821-0.656h-3.251v3.219c0,0.621-0.504,1.125-1.125,1.125s-1.125-0.504-1.125-1.125V41.41
			c0-0.621,0.504-1.125,1.125-1.125h4.376c1.456,0,2.696,0.992,3.017,2.412l4.777,21.231c0.074,0.334-0.006,0.684-0.219,0.949
			C66.665,65.145,66.342,65.3,66,65.3z"/>
		<path fill="#EF8448" d="M61.529,65.3H47.526c-0.621,0-1.125-0.504-1.125-1.125s0.504-1.125,1.125-1.125h12.925
			c0.069-3.176-0.479-5.454-1.701-7.118c-0.288-0.393-0.553-0.818-0.811-1.301c-1.305-2.454-1.917-5.056-1.828-7.752H44.405
			c-0.621,0-1.125-0.504-1.125-1.125s0.504-1.125,1.125-1.125H57.32c0.32,0,0.625,0.136,0.838,0.375s0.315,0.557,0.279,0.875
			c-0.305,2.722,0.183,5.239,1.488,7.694c0.207,0.387,0.415,0.723,0.639,1.027c1.682,2.288,2.346,5.353,2.088,9.642
			C62.617,64.836,62.125,65.3,61.529,65.3z"/>
		<path fill="#EF8448" d="M57.063,60.393c-0.529,0-1.002-0.377-1.104-0.917c-0.266-1.407-0.733-2.558-1.432-3.518
			c-0.363-0.501-0.692-1.048-1.006-1.671c-1.372-2.729-1.896-5.642-1.559-8.658c0.07-0.617,0.632-1.057,1.243-0.993
			c0.617,0.069,1.063,0.625,0.994,1.243c-0.289,2.576,0.16,5.065,1.333,7.397c0.258,0.513,0.524,0.958,0.815,1.358
			c0.885,1.218,1.498,2.706,1.822,4.424c0.115,0.61-0.287,1.199-0.896,1.314C57.203,60.386,57.133,60.393,57.063,60.393z"/>
		<path fill="#EF8448" d="M54.375,65.298c-0.023,0-0.046-0.001-0.069-0.002c-0.62-0.038-1.093-0.57-1.056-1.19
			c0.225-3.716-0.296-6.305-1.637-8.15c-0.359-0.495-0.698-1.057-1.006-1.67c-0.348-0.693-0.645-1.404-0.883-2.115
			c-0.198-0.589,0.119-1.227,0.708-1.424c0.588-0.197,1.227,0.119,1.424,0.708c0.205,0.61,0.461,1.223,0.761,1.821
			c0.253,0.504,0.528,0.961,0.816,1.357c1.664,2.289,2.32,5.343,2.063,9.607C55.461,64.838,54.965,65.298,54.375,65.298z"/>
		<path fill="#EF8448" d="M47.544,65.3c-0.006-0.001-0.013,0-0.02,0h-7.963c-0.621,0-1.125-0.504-1.125-1.125V41.117
			c0-0.621,0.504-1.125,1.125-1.125h2.453c1.518,0,2.8,1.087,3.049,2.584L48.6,63.785c0.045,0.121,0.069,0.252,0.069,0.39
			C48.669,64.796,48.166,65.3,47.544,65.3z M40.687,63.05h5.51l-3.352-20.104c-0.068-0.408-0.417-0.704-0.83-0.704h-1.328V63.05z"/>
	</g>
</g>
</svg>
