<svg width="35" height="35" viewBox="0 0 35 35" fill="none" xmlns="http://www.w3.org/2000/svg">
<mask id="mask0" mask-type="alpha" maskUnits="userSpaceOnUse" x="0" y="0" width="35" height="35">
<rect width="35" height="35" fill="#C4C4C4"/>
</mask>
<g mask="url(#mask0)">
<path d="M28.4347 11.388C28.4347 11.334 28.4275 11.2763 28.4167 11.2259V11.2223C28.4059 11.1683 28.3915 11.1179 28.3699 11.0675C28.3627 11.0531 28.3555 11.0387 28.3519 11.0243C28.3339 10.9882 28.3159 10.9522 28.2943 10.9162C28.2835 10.9018 28.2763 10.8874 28.2691 10.8766C28.2367 10.8334 28.2042 10.7866 28.1646 10.747L23.4146 5.99691C23.375 5.9573 23.3318 5.92129 23.2849 5.89248C23.2705 5.88527 23.2597 5.87447 23.2453 5.86727C23.2093 5.84566 23.1733 5.82765 23.1373 5.80965C23.1229 5.80245 23.1085 5.79524 23.0941 5.79164C23.0437 5.77364 22.9932 5.75563 22.9428 5.74483H22.9392C22.8852 5.73402 22.8312 5.73042 22.7772 5.73042C22.77 5.73042 22.7628 5.72682 22.7556 5.72682H19.4928V7.58506H21.8264V11.406C21.8264 11.9174 22.2442 12.3351 22.7556 12.3351H26.5765V30.3918H7.98324V7.58146H16.0824V11.8381C16.0824 12.8933 15.2253 13.7504 14.1702 13.7504C13.115 13.7504 12.2579 12.8933 12.2579 11.8381V9.85385C12.2579 9.33887 11.8402 8.92473 11.3288 8.92473C10.8174 8.92473 10.3997 9.34247 10.3997 9.85385V11.8381C10.3997 13.9161 12.0923 15.6086 14.1702 15.6086C16.2481 15.6086 17.9407 13.9161 17.9407 11.8381V4.36195C17.9407 2.85302 16.7127 1.625 15.2037 1.625C13.6948 1.625 12.4668 2.85302 12.4668 4.36195V5.72322H7.05412C6.54274 5.72322 6.125 6.14096 6.125 6.65234V31.3209C6.125 31.8359 6.54274 32.25 7.05412 32.25H27.5056C28.0206 32.25 28.4347 31.8359 28.4347 31.3209V11.406C28.4383 11.3988 28.4347 11.3916 28.4347 11.388ZM14.3286 4.36195C14.3286 3.87938 14.7212 3.48324 15.2073 3.48324C15.6899 3.48324 16.086 3.87578 16.086 4.36195V5.72322H14.3286V4.36195Z" fill="#12A3CC"/>
<path d="M22.4099 18.2196H12.1536C11.6098 18.2196 11.1704 18.659 11.1704 19.2027C11.1704 19.7465 11.6098 20.1859 12.1536 20.1859H22.4099C22.9537 20.1859 23.393 19.7465 23.393 19.2027C23.393 18.659 22.9537 18.2196 22.4099 18.2196Z" fill="#12A3CC"/>
<path d="M12.1536 24.0031H19.7918C20.3356 24.0031 20.7749 23.5638 20.7749 23.02C20.7749 22.4762 20.3356 22.0369 19.7918 22.0369H12.1536C11.6098 22.0369 11.1704 22.4762 11.1704 23.02C11.1704 23.5638 11.6098 24.0031 12.1536 24.0031Z" fill="#12A3CC"/>
<path d="M12.1536 27.8241H22.4099C22.9537 27.8241 23.393 27.3847 23.393 26.8409C23.393 26.2971 22.9537 25.8578 22.4099 25.8578H12.1536C11.6098 25.8578 11.1704 26.2971 11.1704 26.8409C11.1704 27.3847 11.6098 27.8241 12.1536 27.8241Z" fill="#12A3CC"/>
</g>
</svg>
