<svg width="35" height="35" viewBox="0 0 35 35" fill="none" xmlns="http://www.w3.org/2000/svg">
<mask id="mask0" mask-type="alpha" maskUnits="userSpaceOnUse" x="0" y="0" width="35" height="35">
<rect width="35" height="35" fill="#C4C4C4"/>
</mask>
<g mask="url(#mask0)">
<path d="M27.3868 7.03406C26.7673 7.03406 26.2632 7.53823 26.2632 8.15765V30.0028H8.37218V8.15765C8.37218 7.53823 7.868 7.03406 7.24859 7.03406C6.62917 7.03406 6.125 7.53823 6.125 8.15765V31.1264C6.125 31.7458 6.62917 32.25 7.24859 32.25H27.3868C28.0062 32.25 28.5103 31.7458 28.5103 31.1264V8.15765C28.5103 7.53823 28.0062 7.03406 27.3868 7.03406Z" fill="#EF8448"/>
<path d="M11.9087 10.2788H22.7269C23.3463 10.2788 23.8505 9.77462 23.8505 9.15521V6.49388C23.8505 5.87447 23.3463 5.3703 22.7269 5.3703H20.9299C20.9299 5.32708 20.9371 5.28747 20.9371 5.24425C20.9371 3.24916 19.3129 1.625 17.3178 1.625C15.3227 1.625 13.6986 3.24916 13.6986 5.24425C13.6986 5.28747 13.7022 5.32708 13.7058 5.3703H11.9087C11.2893 5.3703 10.7852 5.87447 10.7852 6.49388V9.15521C10.7852 9.77822 11.2893 10.2788 11.9087 10.2788ZM17.3178 3.87218C18.0741 3.87218 18.6899 4.48799 18.6899 5.24425C18.6899 5.28747 18.6863 5.32708 18.6827 5.3703H15.9493C15.9457 5.33068 15.9421 5.28747 15.9421 5.24425C15.9457 4.48799 16.5616 3.87218 17.3178 3.87218Z" fill="#EF8448"/>
<path d="M11.2856 15.5222H17.6922C18.1748 15.5222 18.5673 15.1296 18.5673 14.6471C18.5673 14.1645 18.1748 13.772 17.6922 13.772H11.2856C10.803 13.772 10.4141 14.1645 10.4141 14.6471C10.4105 15.1332 10.803 15.5222 11.2856 15.5222Z" fill="#EF8448"/>
<path d="M21.8949 12.3208C20.6093 12.3208 19.5649 13.3652 19.5649 14.6508C19.5649 15.9365 20.6093 16.9808 21.8949 16.9808C23.1806 16.9808 24.225 15.9365 24.225 14.6508C24.225 13.3652 23.1806 12.3208 21.8949 12.3208ZM21.8949 15.2306C21.5744 15.2306 21.3115 14.9677 21.3115 14.6472C21.3115 14.3267 21.5708 14.0638 21.8949 14.0638C22.2155 14.0638 22.4783 14.3267 22.4783 14.6472C22.4783 14.9713 22.2155 15.2306 21.8949 15.2306Z" fill="#EF8448"/>
<path d="M11.2856 21.1798H17.6922C18.1748 21.1798 18.5673 20.7872 18.5673 20.3047C18.5673 19.8221 18.1748 19.4296 17.6922 19.4296H11.2856C10.803 19.4296 10.4141 19.8221 10.4141 20.3047C10.4105 20.7908 10.803 21.1798 11.2856 21.1798Z" fill="#EF8448"/>
<path d="M21.8949 17.9783C20.6093 17.9783 19.5649 19.0226 19.5649 20.3083C19.5649 21.5939 20.6093 22.6383 21.8949 22.6383C23.1806 22.6383 24.225 21.5939 24.225 20.3083C24.225 19.0226 23.1806 17.9783 21.8949 17.9783ZM21.8949 20.8917C21.5744 20.8917 21.3115 20.6288 21.3115 20.3083C21.3115 19.9878 21.5708 19.7249 21.8949 19.7249C22.2155 19.7249 22.4783 19.9878 22.4783 20.3083C22.4783 20.6288 22.2155 20.8917 21.8949 20.8917Z" fill="#EF8448"/>
<path d="M11.2856 26.8409H17.6922C18.1748 26.8409 18.5673 26.4484 18.5673 25.9658C18.5673 25.4832 18.1748 25.0907 17.6922 25.0907H11.2856C10.803 25.0907 10.4141 25.4832 10.4141 25.9658C10.4105 26.4484 10.803 26.8409 11.2856 26.8409Z" fill="#EF8448"/>
<path d="M21.8949 23.6357C20.6093 23.6357 19.5649 24.6801 19.5649 25.9657C19.5649 27.2514 20.6093 28.2958 21.8949 28.2958C23.1806 28.2958 24.225 27.2514 24.225 25.9657C24.225 24.6801 23.1806 23.6357 21.8949 23.6357ZM21.8949 26.5491C21.5744 26.5491 21.3115 26.2863 21.3115 25.9657C21.3115 25.6452 21.5708 25.3823 21.8949 25.3823C22.2155 25.3823 22.4783 25.6452 22.4783 25.9657C22.4783 26.2863 22.2155 26.5491 21.8949 26.5491Z" fill="#EF8448"/>
</g>
</svg>
