<svg width="115" height="115" viewBox="0 0 115 115" fill="none" xmlns="http://www.w3.org/2000/svg">
<mask id="mask0" mask-type="alpha" maskUnits="userSpaceOnUse" x="0" y="0" width="115" height="115">
<rect width="115" height="115" fill="#C4C4C4"/>
</mask>
<g mask="url(#mask0)">
<path d="M69.1244 91.7546H45.3445V69.7232C45.3445 62.3745 39.37 56.3982 32.0236 56.3982C24.6772 56.3982 18.7027 62.3745 18.7027 69.7232V91.7546H15V69.7232C15 60.3381 22.6267 52.709 32.0088 52.709C41.391 52.709 49.0177 60.3381 49.0177 69.7232V88.0655H69.1097V91.7546H69.1244Z" fill="#A26EE3" stroke="#A26EE3"/>
<path d="M57.795 82.9746H54.1071V60.9432C54.1071 53.5945 48.1326 47.6181 40.7862 47.6181C35.6968 47.6181 30.991 50.5842 28.7782 55.1587L27.9816 56.8114L24.6477 55.2177L25.4443 53.5502C28.2619 47.7067 34.2806 43.929 40.7714 43.929C50.1536 43.929 57.7803 51.5581 57.7803 60.9432V82.9746H57.795Z" fill="#A26EE3" stroke="#A26EE3"/>
<path d="M40.7862 47.6182C34.8265 47.6182 29.9879 42.7633 29.9879 36.8165C29.9879 30.8549 34.8413 26.0148 40.7862 26.0148C46.7312 26.0148 51.5846 30.8696 51.5846 36.8165C51.5846 42.7633 46.746 47.6182 40.7862 47.6182ZM40.7862 29.6891C36.8623 29.6891 33.6759 32.8765 33.6759 36.8017C33.6759 40.7269 36.8623 43.9143 40.7862 43.9143C44.7102 43.9143 47.8966 40.7269 47.8966 36.8017C47.8966 32.8765 44.7102 29.6891 40.7862 29.6891Z" fill="#A26EE3" stroke="#A26EE3"/>
<path d="M99.9999 82.9746H62.1763V79.2855H96.312V74.0617H62.1763V70.3726H99.9999V82.9746Z" fill="#A26EE3" stroke="#A26EE3"/>
<path d="M100 65.9162H96.312V56.9443C96.312 50.6138 91.1637 45.4491 84.8204 45.4491C78.4918 45.4491 73.3287 50.5991 73.3287 56.9443V65.9162H69.6407V56.9443C69.6407 48.5774 76.4561 41.7599 84.8204 41.7599C93.1847 41.7599 100 48.5774 100 56.9443V65.9162Z" fill="#A26EE3" stroke="#A26EE3"/>
<path d="M84.8203 45.449C79.4654 45.449 75.0989 41.0811 75.0989 35.7245C75.0989 30.3679 79.4507 26 84.8203 26C90.1752 26 94.5418 30.3679 94.5418 35.7245C94.5418 41.0811 90.1752 45.449 84.8203 45.449ZM84.8203 29.6891C81.5012 29.6891 78.7868 32.3895 78.7868 35.7245C78.7868 39.0594 81.4864 41.7599 84.8203 41.7599C88.1395 41.7599 90.8538 39.0594 90.8538 35.7245C90.8538 32.3895 88.1395 29.6891 84.8203 29.6891Z" fill="#A26EE3" stroke="#A26EE3"/>
<path d="M86.6643 48.4889H82.9763V52.4584H86.6643V48.4889Z" fill="#A26EE3" stroke="#A26EE3"/>
<path d="M86.6643 55.0406H82.9763V65.9014H86.6643V55.0406Z" fill="#A26EE3" stroke="#A26EE3"/>
</g>
</svg>
