<svg width="37" height="38" viewBox="0 0 37 38" fill="none" xmlns="http://www.w3.org/2000/svg">
<circle cx="10" cy="10" r="10" fill="#F4F4F4"/>
<mask id="mask0" mask-type="alpha" maskUnits="userSpaceOnUse" x="2" y="3" width="35" height="35">
<rect x="2" y="3" width="35" height="35" fill="#C4C4C4"/>
</mask>
<g mask="url(#mask0)">
<path d="M13.3418 20.0718C13.3418 20.809 13.9394 21.4066 14.6766 21.4066C15.4138 21.4066 16.0113 20.809 16.0113 20.0718C16.0113 19.3346 15.4138 18.7371 14.6766 18.7371C13.9394 18.7371 13.3418 19.3346 13.3418 20.0718Z" fill="#3A80D1"/>
<path d="M17.4775 20.0718C17.4775 20.809 18.0751 21.4066 18.8123 21.4066C19.5495 21.4066 20.1471 20.809 20.1471 20.0718C20.1471 19.3346 19.5495 18.7371 18.8123 18.7371C18.0751 18.7371 17.4775 19.3346 17.4775 20.0718Z" fill="#3A80D1"/>
<path d="M21.6101 20.0718C21.6101 20.809 22.2077 21.4066 22.9449 21.4066C23.6821 21.4066 24.2796 20.809 24.2796 20.0718C24.2796 19.3346 23.6821 18.7371 22.9449 18.7371C22.2077 18.7371 21.6101 19.3346 21.6101 20.0718Z" fill="#3A80D1"/>
<path d="M31.2943 12.6441C31.2859 12.5129 31.2496 12.3816 31.1826 12.2588L29.3983 8.94697C29.2307 8.63701 28.9068 8.44434 28.5577 8.44434C28.2059 8.44434 27.882 8.63701 27.7172 8.94697L25.9329 12.2588C25.8659 12.3816 25.8324 12.5129 25.8212 12.6469C25.7961 12.7307 25.7793 12.82 25.7793 12.9122V13.2389H31.3334V12.9122C31.3334 12.8172 31.3166 12.7307 31.2943 12.6441Z" fill="#3A80D1"/>
<path d="M25.7793 31.2107C25.7793 31.7524 26.2177 32.1908 26.7594 32.1908H30.3533C30.895 32.1908 31.3334 31.7524 31.3334 31.2107V14.6545H25.7793V31.2107ZM27.7396 28.7143H29.3731V30.2194H27.7396V28.7143Z" fill="#3A80D1"/>
<path d="M8 19.9267C8 22.3812 8.94104 24.7128 10.6612 26.5586L9.53861 29.5325C9.4353 29.809 9.46043 30.1161 9.60843 30.373C9.75642 30.6271 10.0133 30.8031 10.3037 30.8478C10.34 30.8533 10.6723 30.9036 11.1861 30.9036C12.1411 30.9036 13.9143 30.7277 15.5814 29.6051C16.7039 29.9486 17.8712 30.1217 19.0579 30.1217C21.0629 30.1217 22.945 29.6247 24.5673 28.759V26.472C23.0371 27.5304 21.1271 28.1615 19.0579 28.1615C17.9158 28.1615 16.8017 27.9716 15.7405 27.5946C15.4222 27.4829 15.0704 27.5387 14.8051 27.7482C13.8054 28.5356 12.694 28.8177 11.8731 28.907L12.7192 26.6647C12.8588 26.2961 12.7638 25.8801 12.4762 25.6064C10.8538 24.065 9.96027 22.0489 9.96027 19.9267C9.96027 15.3862 14.04 11.6919 19.0551 11.6919C21.1243 11.6919 23.0343 12.3229 24.5645 13.3813V13.2388V12.9121C24.5645 12.7558 24.5841 12.5966 24.6204 12.4318C24.6539 12.1666 24.7349 11.9152 24.8605 11.6835L25.0337 11.3623C23.308 10.3347 21.2555 9.73438 19.0523 9.73438C12.9593 9.73158 8 14.3055 8 19.9267Z" fill="#3A80D1"/>
</g>
</svg>
