<svg width="35" height="35" viewBox="0 0 35 35" fill="none" xmlns="http://www.w3.org/2000/svg">
<mask id="mask0" mask-type="alpha" maskUnits="userSpaceOnUse" x="0" y="0" width="35" height="35">
<rect width="35" height="35" fill="#C4C4C4"/>
</mask>
<g mask="url(#mask0)">
<path d="M12.7962 20.0455C12.2416 20.4597 11.5608 20.7082 10.8261 20.7082C10.0914 20.7082 9.41065 20.4633 8.85599 20.0455C7.00473 20.7731 5.70093 22.4911 5.70093 24.49C5.70093 24.879 6.01427 25.1923 6.40325 25.1923H15.2526C15.6415 25.1923 15.9549 24.879 15.9549 24.49C15.9513 22.4911 14.6475 20.7731 12.7962 20.0455Z" fill="#8E5BCF"/>
<path d="M10.8226 19.5199C12.0544 19.5199 13.0557 18.4826 13.0557 17.204C13.0557 15.9254 12.0544 14.8881 10.8226 14.8881C9.59086 14.8881 8.5896 15.929 8.5896 17.204C8.5896 18.479 9.59086 19.5199 10.8226 19.5199Z" fill="#8E5BCF"/>
<path d="M31.2621 8.98847H20.5183V10.919H19.6395V7.82513C19.6395 6.40247 18.4869 5.24994 17.0643 5.24994C15.6416 5.24994 14.4891 6.40247 14.4891 7.82513V10.919H13.6103V8.98847H2.86652C2.25063 8.98847 1.75 9.4891 1.75 10.105V27.9837C1.75 28.5996 2.25063 29.1002 2.86652 29.1002H31.2585C31.8743 29.1002 32.375 28.5996 32.375 27.9837V10.105C32.3786 9.4891 31.878 8.98847 31.2621 8.98847ZM17.6298 25.7506C17.6298 26.3665 17.1291 26.8671 16.5132 26.8671H5.34086C4.72498 26.8671 4.22435 26.3665 4.22435 25.7506V13.8327C4.22435 13.2168 4.72498 12.7162 5.34086 12.7162H16.5132C17.1291 12.7162 17.6298 13.2168 17.6298 13.8327V25.7506ZM20.5003 14.9888H26.7888C27.2678 14.9888 27.6568 15.3778 27.6568 15.8569C27.6568 16.3359 27.2678 16.7249 26.7888 16.7249H20.5003C20.0213 16.7249 19.6323 16.3359 19.6323 15.8569C19.6287 15.3778 20.0177 14.9888 20.5003 14.9888ZM24.3072 24.5909H20.5003C20.0213 24.5909 19.6323 24.2019 19.6323 23.7229C19.6323 23.2439 20.0213 22.8549 20.5003 22.8549H24.3072C24.7863 22.8549 25.1752 23.2439 25.1752 23.7229C25.1752 24.2019 24.7863 24.5909 24.3072 24.5909ZM29.2703 20.6579H20.5003C20.0213 20.6579 19.6323 20.2689 19.6323 19.7899C19.6323 19.3109 20.0213 18.9219 20.5003 18.9219H29.2739C29.753 18.9219 30.1419 19.3109 30.1419 19.7899C30.1419 20.2689 29.753 20.6579 29.2703 20.6579Z" fill="#8E5BCF"/>
</g>
</svg>
