<svg width="115" height="115" viewBox="0 0 115 115" fill="none" xmlns="http://www.w3.org/2000/svg">
<mask id="mask0" mask-type="alpha" maskUnits="userSpaceOnUse" x="0" y="0" width="115" height="115">
<rect width="115" height="115" fill="#C4C4C4"/>
</mask>
<g mask="url(#mask0)">
</g>
<g clip-path="url(#clip0)">
<path d="M83.9932 18.6875H45.493C44.7145 18.6875 43.9638 18.9934 43.4169 19.5494L22.4244 40.5327C21.8684 41.0888 21.5625 41.8395 21.5625 42.618V88.0693C21.5625 93.2688 25.7981 97.5044 30.9975 97.5044H83.9932C89.2019 97.5044 93.4282 93.2688 93.4282 88.0693V28.1225C93.4375 22.9231 89.2019 18.6875 83.9932 18.6875ZM87.5522 88.0693C87.5522 90.0342 85.9581 91.6283 83.9932 91.6283H30.9975C29.0327 91.6283 27.4385 90.0342 27.4385 88.0693V44.2122H40.5809C44.1677 44.2122 47.0779 41.3019 47.0779 37.7151V24.5635H83.9839C85.9488 24.5635 87.5429 26.1577 87.5429 28.1225V88.0693H87.5522Z" fill="#8BBAFF" fill-opacity="0.5"/>
<path d="M72.8899 54.0458H63.8626L61.0729 45.4634C60.5724 43.9156 59.1266 42.8683 57.4954 42.8683C55.8642 42.8683 54.4276 43.9156 53.9178 45.4634L51.1281 54.0458H42.1009C40.4697 54.0458 39.0331 55.0931 38.5233 56.6409C38.0228 58.1886 38.5697 59.8847 39.8858 60.8394L47.1891 66.1408L44.3994 74.7231C43.8989 76.2709 44.4457 77.967 45.7618 78.9309C47.0779 79.8855 48.8667 79.8855 50.1827 78.9309L57.4861 73.6295L64.7987 78.9309C65.4568 79.4129 66.2353 79.6538 67.0046 79.6538C67.7831 79.6538 68.5523 79.4129 69.2104 78.9309C70.5265 77.9763 71.0826 76.2802 70.5728 74.7231L67.7831 66.1408L75.0864 60.8394C76.4025 59.8847 76.9586 58.1886 76.4489 56.6409C75.9576 55.0931 74.5211 54.0458 72.8899 54.0458Z" fill="#8BBAFF" fill-opacity="0.5"/>
</g>
<defs>
<clipPath id="clip0">
<rect width="71.875" height="78.8169" fill="white" transform="translate(21.5625 18.6875)"/>
</clipPath>
</defs>
</svg>
