<svg width="37" height="38" viewBox="0 0 37 38" fill="none" xmlns="http://www.w3.org/2000/svg">
<circle cx="10" cy="10" r="10" fill="#F4F4F4"/>
<mask id="mask0" mask-type="alpha" maskUnits="userSpaceOnUse" x="2" y="3" width="35" height="35">
<rect x="2" y="3" width="35" height="35" fill="#C4C4C4"/>
</mask>
<g mask="url(#mask0)">
<path d="M11.7812 32.7473C11.7812 33.2275 12.1718 33.618 12.652 33.618H13.6347C14.1149 33.618 14.5054 33.2275 14.5054 32.7473V29.9847H11.7845V32.7473H11.7812Z" fill="#666666"/>
<path d="M24.7104 32.7473C24.7104 33.2275 25.101 33.618 25.5812 33.618H26.5639C27.0441 33.618 27.4346 33.2275 27.4346 32.7473V29.9847H24.7137V32.7473H24.7104Z" fill="#666666"/>
<path d="M31.8105 11.9113C31.0327 11.9113 30.402 12.5419 30.402 13.3198V16.0407C30.402 16.0951 30.4052 16.1464 30.4116 16.1976L29.2336 17.3724V9.29919C29.2336 8.39648 28.5038 7.66663 27.6011 7.66663H11.6179C10.7152 7.66663 9.98538 8.39648 9.98538 9.29919V17.3756L8.80737 16.2008C8.81377 16.1496 8.81698 16.0983 8.81698 16.0439V13.323C8.81698 12.5451 8.18636 11.9145 7.40849 11.9145C6.63062 11.9145 6 12.5451 6 13.323V16.0439C6 16.8218 6.63062 17.4524 7.40849 17.4524C7.63897 17.4524 7.85664 17.3948 8.05191 17.2956L9.98858 19.2322V26.7388C9.98858 27.6415 10.7184 28.3714 11.6211 28.3714H27.6011C28.5038 28.3714 29.2336 27.6383 29.2336 26.7388V19.2354L31.1703 17.2988C31.3624 17.398 31.5801 17.4556 31.8137 17.4556C32.5916 17.4556 33.2222 16.825 33.2222 16.0471V13.3262C33.219 12.5451 32.5884 11.9113 31.8105 11.9113ZM27.7163 22.0332C27.7163 22.6286 27.2329 23.1152 26.6343 23.1152C26.0357 23.1152 25.5524 22.6318 25.5524 22.0332C25.5524 21.4346 26.0357 20.9512 26.6343 20.9512C27.2329 20.9512 27.7163 21.4346 27.7163 22.0332ZM20.1777 11.3031H27.1337V17.2732H20.1777V11.3031ZM12.0821 11.3031H19.0381V17.2732H12.0821V11.3031ZM12.5783 20.9512C13.1769 20.9512 13.6603 21.4346 13.6603 22.0332C13.6603 22.6286 13.1769 23.1152 12.5783 23.1152C11.9797 23.1152 11.4963 22.6318 11.4963 22.0332C11.4995 21.4346 11.9829 20.9512 12.5783 20.9512ZM27.4794 25.9257H11.7364C11.5219 25.9257 11.3458 25.7529 11.3458 25.5352C11.3458 25.3207 11.5187 25.1447 11.7364 25.1447H27.4826C27.6971 25.1447 27.8732 25.3175 27.8732 25.5352C27.87 25.7497 27.6971 25.9257 27.4794 25.9257Z" fill="#666666"/>
</g>
</svg>
