<svg width="35" height="35" viewBox="0 0 35 35" fill="none" xmlns="http://www.w3.org/2000/svg">
<mask id="mask0" mask-type="alpha" maskUnits="userSpaceOnUse" x="0" y="0" width="35" height="35">
<rect width="35" height="35" fill="#C4C4C4"/>
</mask>
<g mask="url(#mask0)">
<path d="M32.0588 19.9115C31.7202 19.5982 31.2124 19.5622 30.8307 19.8215C30.8055 19.8395 28.1296 21.633 23.4657 21.633C21.3984 21.633 19.2483 21.2765 17.0731 20.5742C14.8077 19.8431 12.5928 19.4722 10.4824 19.4722C5.14141 19.4722 2.23142 21.8203 2.10897 21.9212C1.76683 22.2021 1.65519 22.6811 1.83526 23.0844C2.01533 23.4914 2.44751 23.7255 2.88329 23.6571C4.28066 23.4446 5.3647 23.3437 6.29748 23.3437C7.88933 23.3437 8.99498 23.6391 10.6697 24.082C12.3299 24.525 14.6025 25.1301 18.3732 25.6991C19.4968 25.8684 20.5917 25.9548 21.6325 25.9548C29.3541 25.9548 32.1272 21.3233 32.2424 21.1252C32.4729 20.7291 32.3973 20.2249 32.0588 19.9115Z" fill="#12A3CC"/>
<path d="M17.3757 19.6343C19.4537 20.3041 21.503 20.6463 23.4658 20.6463C26.2533 20.6463 28.2845 19.9584 29.3722 19.4758C29.3506 19.4038 29.3218 19.3317 29.2821 19.2669L22.605 7.78543C22.4286 7.48291 22.1044 7.29563 21.7515 7.29563C21.3985 7.29563 21.0744 7.48291 20.8979 7.78543L18.2545 12.3305L14.4189 5.7398C14.2424 5.43728 13.9147 5.25 13.5654 5.25C13.2124 5.25 12.8883 5.43728 12.7118 5.7398L4.839 19.2633C4.80658 19.3209 4.78137 19.3822 4.75977 19.4434C6.21476 18.9248 8.13074 18.489 10.4789 18.489C12.6938 18.4854 15.0131 18.8743 17.3757 19.6343Z" fill="#12A3CC"/>
<path d="M23.1019 27.3666C21.4848 27.8636 16.5436 27.9068 12.4488 25.7532C7.79207 23.3114 3.6936 24.8384 3.52073 24.9032C3.01292 25.0977 2.75722 25.6703 2.9553 26.1781C3.14978 26.6859 3.72241 26.9416 4.23022 26.7436C4.26263 26.7291 7.65881 25.465 11.5304 27.4999C14.5124 29.0665 17.8942 29.6283 20.4908 29.6283C21.809 29.6283 22.9254 29.4843 23.6817 29.2502C24.204 29.0917 24.4957 28.5371 24.3336 28.0185C24.1751 27.4999 23.6241 27.2081 23.1019 27.3666Z" fill="#12A3CC"/>
</g>
</svg>
