<svg width="35" height="35" viewBox="0 0 35 35" fill="none" xmlns="http://www.w3.org/2000/svg">
<mask id="mask0" mask-type="alpha" maskUnits="userSpaceOnUse" x="0" y="0" width="35" height="35">
<rect width="35" height="35" fill="#C4C4C4"/>
</mask>
<g mask="url(#mask0)">
<path d="M27.0755 2.625H8.05395C6.50594 2.625 5.25 3.86368 5.25 5.39043V32.5478C5.25 32.9331 5.56764 33.25 5.96194 33.25H29.1712C29.5619 33.25 29.8832 32.9367 29.8832 32.5478V5.39043C29.8795 3.86368 28.6236 2.625 27.0755 2.625ZM8.6089 5.2428H26.5243V8.07665H8.6089V5.2428ZM28.4593 30.1425C28.0504 29.912 27.5794 29.7824 27.0755 29.7824H8.05395C7.55012 29.7824 7.07914 29.9156 6.67388 30.1425V9.47377H16.8565V11.7999C15.7648 12.106 14.9616 13.0962 14.9616 14.2701C14.9616 15.4439 15.7648 16.4342 16.8565 16.7402V25.8683C16.8565 26.2536 17.1741 26.5705 17.5684 26.5705C17.9591 26.5705 18.2767 26.2572 18.2767 25.8683V16.7402C19.3683 16.4342 20.1715 15.4439 20.1715 14.2701C20.1715 13.0962 19.3683 12.106 18.2767 11.7999V9.47377H28.4593V30.1425ZM17.5648 13.1034C18.2183 13.1034 18.7477 13.6255 18.7477 14.2701C18.7477 14.9146 18.2146 15.4367 17.5648 15.4367C16.9112 15.4367 16.3818 14.9146 16.3818 14.2701C16.3818 13.6291 16.9112 13.1034 17.5648 13.1034Z" fill="#EF8448"/>
</g>
</svg>
