<svg width="35" height="35" viewBox="0 0 35 35" fill="none" xmlns="http://www.w3.org/2000/svg">
<mask id="mask0" mask-type="alpha" maskUnits="userSpaceOnUse" x="0" y="0" width="35" height="35">
<rect width="35" height="35" fill="#C4C4C4"/>
</mask>
<g mask="url(#mask0)">
<path d="M29.6559 10.5437C29.1203 10.5437 28.6867 10.9773 28.6867 11.5129V22.808H6.31012V11.5097C6.31012 10.9741 5.87655 10.5405 5.34096 10.5405C4.80857 10.5437 4.375 10.9773 4.375 11.5097V30.5165C4.375 31.0521 4.80857 31.4857 5.34415 31.4857H29.6559C30.1914 31.4857 30.625 31.0521 30.625 30.5165V11.5097C30.625 10.9773 30.1914 10.5437 29.6559 10.5437Z" fill="#EF8448"/>
<path d="M8.28361 21.4436C8.81919 21.4436 9.25276 21.01 9.25276 20.4744V12.1537H14.1304C14.666 12.1537 15.0996 11.7202 15.0996 11.1846V6.31012H25.7507V20.4744C25.7507 21.01 26.1842 21.4436 26.7198 21.4436C27.2554 21.4436 27.689 21.01 27.689 20.4744V5.34415C27.689 4.80857 27.2554 4.375 26.7198 4.375H14.1304C14.124 4.375 14.1177 4.375 14.1113 4.37819C13.9965 4.38138 13.8817 4.40369 13.7765 4.44514C13.7606 4.45151 13.7478 4.45789 13.7351 4.46426C13.6968 4.48339 13.6586 4.50252 13.6203 4.52484C13.6076 4.5344 13.5948 4.54078 13.5789 4.55034C13.5311 4.58222 13.4864 4.61729 13.445 4.66192L7.59819 10.5023C7.55674 10.5438 7.52168 10.5884 7.4898 10.6362C7.48023 10.649 7.47386 10.6649 7.46429 10.6777C7.44198 10.7159 7.41966 10.751 7.40372 10.7924C7.39734 10.8084 7.39097 10.8211 7.38459 10.8371C7.36546 10.8881 7.34634 10.9423 7.33677 10.9965V10.9997C7.32721 11.0571 7.32083 11.1112 7.32083 11.1686C7.32083 11.175 7.31764 11.1814 7.31764 11.1878V20.4744C7.31446 21.01 7.74802 21.4436 8.28361 21.4436Z" fill="#EF8448"/>
<path d="M21.6954 14.991H13.3046C12.769 14.991 12.3354 15.4245 12.3354 15.9601C12.3354 16.4957 12.769 16.9293 13.3046 16.9293H21.6954C22.231 16.9293 22.6646 16.4957 22.6646 15.9601C22.6646 15.4245 22.231 14.991 21.6954 14.991Z" fill="#EF8448"/>
<path d="M21.6954 18.5775H13.3046C12.769 18.5775 12.3354 19.0111 12.3354 19.5467C12.3354 20.0823 12.769 20.5158 13.3046 20.5158H21.6954C22.231 20.5158 22.6646 20.0823 22.6646 19.5467C22.6646 19.0111 22.231 18.5775 21.6954 18.5775Z" fill="#EF8448"/>
</g>
</svg>
