<svg width="37" height="38" viewBox="0 0 37 38" fill="none" xmlns="http://www.w3.org/2000/svg">
<circle cx="10" cy="10" r="10" fill="#F4F4F4"/>
<mask id="mask0" mask-type="alpha" maskUnits="userSpaceOnUse" x="2" y="3" width="35" height="35">
<rect x="2" y="3" width="35" height="35" fill="#C4C4C4"/>
</mask>
<g mask="url(#mask0)">
<path d="M13.3418 20.0721C13.3418 20.8093 13.9394 21.4068 14.6766 21.4068C15.4138 21.4068 16.0113 20.8093 16.0113 20.0721C16.0113 19.3349 15.4138 18.7373 14.6766 18.7373C13.9394 18.7373 13.3418 19.3349 13.3418 20.0721Z" fill="#666666"/>
<path d="M17.4775 20.0721C17.4775 20.8093 18.0751 21.4068 18.8123 21.4068C19.5495 21.4068 20.1471 20.8093 20.1471 20.0721C20.1471 19.3349 19.5495 18.7373 18.8123 18.7373C18.0751 18.7373 17.4775 19.3349 17.4775 20.0721Z" fill="#666666"/>
<path d="M21.6101 20.0721C21.6101 20.8093 22.2077 21.4068 22.9449 21.4068C23.6821 21.4068 24.2796 20.8093 24.2796 20.0721C24.2796 19.3349 23.6821 18.7373 22.9449 18.7373C22.2077 18.7373 21.6101 19.3349 21.6101 20.0721Z" fill="#666666"/>
<path d="M31.2943 12.6442C31.2859 12.513 31.2496 12.3817 31.1826 12.2589L29.3983 8.94709C29.2307 8.63713 28.9068 8.44446 28.5577 8.44446C28.2059 8.44446 27.882 8.63713 27.7172 8.94709L25.9329 12.2589C25.8659 12.3817 25.8324 12.513 25.8212 12.647C25.7961 12.7308 25.7793 12.8202 25.7793 12.9123V13.239H31.3334V12.9123C31.3334 12.8174 31.3166 12.7308 31.2943 12.6442Z" fill="#666666"/>
<path d="M25.7793 31.211C25.7793 31.7527 26.2177 32.1911 26.7594 32.1911H30.3533C30.895 32.1911 31.3334 31.7527 31.3334 31.211V14.6548H25.7793V31.211ZM27.7396 28.7145H29.3731V30.2197H27.7396V28.7145Z" fill="#666666"/>
<path d="M8 19.9268C8 22.3813 8.94104 24.713 10.6612 26.5587L9.53861 29.5326C9.4353 29.8091 9.46043 30.1163 9.60843 30.3732C9.75642 30.6273 10.0133 30.8032 10.3037 30.8479C10.34 30.8535 10.6723 30.9037 11.1861 30.9037C12.1411 30.9037 13.9143 30.7278 15.5814 29.6053C16.7039 29.9487 17.8712 30.1218 19.0579 30.1218C21.0629 30.1218 22.945 29.6248 24.5673 28.7592V26.4722C23.0371 27.5305 21.1271 28.1616 19.0579 28.1616C17.9158 28.1616 16.8017 27.9717 15.7405 27.5947C15.4222 27.483 15.0704 27.5389 14.8051 27.7483C13.8054 28.5358 12.694 28.8178 11.8731 28.9072L12.7192 26.6649C12.8588 26.2963 12.7638 25.8802 12.4762 25.6065C10.8538 24.0651 9.96027 22.049 9.96027 19.9268C9.96027 15.3863 14.04 11.692 19.0551 11.692C21.1243 11.692 23.0343 12.3231 24.5645 13.3814V13.239V12.9123C24.5645 12.7559 24.5841 12.5967 24.6204 12.432C24.6539 12.1667 24.7349 11.9154 24.8605 11.6836L25.0337 11.3625C23.308 10.3349 21.2555 9.7345 19.0523 9.7345C12.9593 9.73171 8 14.3057 8 19.9268Z" fill="#666666"/>
</g>
</svg>
