<svg width="36" height="38" viewBox="0 0 36 38" fill="none" xmlns="http://www.w3.org/2000/svg">
<circle cx="10" cy="10" r="10" fill="#F4F4F4"/>
<mask id="mask0" mask-type="alpha" maskUnits="userSpaceOnUse" x="1" y="3" width="35" height="35">
<rect x="1" y="3" width="35" height="35" fill="#C4C4C4"/>
</mask>
<g mask="url(#mask0)">
<path d="M29.694 13.9279C29.218 13.9279 28.8326 14.3133 28.8326 14.7894V24.8294H8.94227V14.7865C8.94227 14.3104 8.55688 13.925 8.0808 13.925C7.60756 13.9279 7.22217 14.3133 7.22217 14.7865V31.6815C7.22217 32.1576 7.60756 32.543 8.08364 32.543H29.694C30.1701 32.543 30.5555 32.1576 30.5555 31.6815V14.7865C30.5555 14.3133 30.1701 13.9279 29.694 13.9279Z" fill="#666666"/>
<path d="M10.6963 23.6165C11.1724 23.6165 11.5578 23.2311 11.5578 22.755V15.3589H15.8934C16.3695 15.3589 16.7549 14.9735 16.7549 14.4974V10.1646H26.2226V22.755C26.2226 23.2311 26.608 23.6165 27.084 23.6165C27.5601 23.6165 27.9455 23.2311 27.9455 22.755V9.30593C27.9455 8.82985 27.5601 8.44446 27.084 8.44446H15.8934C15.8878 8.44446 15.8821 8.44446 15.8764 8.44729C15.7744 8.45013 15.6724 8.46996 15.5789 8.5068C15.5647 8.51247 15.5534 8.51814 15.5421 8.5238C15.5081 8.54081 15.474 8.55781 15.44 8.57765C15.4287 8.58615 15.4174 8.59181 15.4032 8.60032C15.3607 8.62865 15.321 8.65983 15.2842 8.6995L10.087 13.891C10.0502 13.9278 10.019 13.9675 9.99069 14.01C9.98218 14.0213 9.97652 14.0355 9.96802 14.0468C9.94818 14.0808 9.92834 14.112 9.91417 14.1489C9.90851 14.163 9.90284 14.1744 9.89717 14.1885C9.88017 14.2339 9.86317 14.282 9.85466 14.3302V14.3331C9.84616 14.3841 9.8405 14.4322 9.8405 14.4832C9.8405 14.4889 9.83766 14.4946 9.83766 14.5002V22.755C9.83483 23.2311 10.2202 23.6165 10.6963 23.6165Z" fill="#666666"/>
<path d="M22.6181 17.881H15.1596C14.6835 17.881 14.2981 18.2664 14.2981 18.7425C14.2981 19.2185 14.6835 19.6039 15.1596 19.6039H22.6181C23.0941 19.6039 23.4795 19.2185 23.4795 18.7425C23.4795 18.2664 23.0941 17.881 22.6181 17.881Z" fill="#666666"/>
<path d="M22.6181 21.069H15.1596C14.6835 21.069 14.2981 21.4544 14.2981 21.9304C14.2981 22.4065 14.6835 22.7919 15.1596 22.7919H22.6181C23.0941 22.7919 23.4795 22.4065 23.4795 21.9304C23.4795 21.4544 23.0941 21.069 22.6181 21.069Z" fill="#666666"/>
</g>
</svg>
