<svg width="35" height="33" viewBox="0 0 35 33" fill="none" xmlns="http://www.w3.org/2000/svg">
<mask id="mask0" mask-type="alpha" maskUnits="userSpaceOnUse" x="0" y="0" width="35" height="33">
<rect width="35" height="33" fill="#C4C4C4"/>
</mask>
<g mask="url(#mask0)">
<path d="M29.514 8.70063H23.5518L21.5736 5.47085C21.3761 5.14787 21.0119 4.95001 20.6169 4.95001H14.3769C13.9819 4.95001 13.6177 5.14787 13.4202 5.47085L11.4421 8.70063H5.47981C4.86877 8.70063 4.375 9.16618 4.375 9.74231V15.521C4.375 15.9865 4.70212 16.3939 5.17737 16.5219L17.1945 19.7663C17.2932 19.7924 17.3951 19.807 17.5 19.807C17.6018 19.807 17.7037 19.7924 17.8055 19.7663L29.8226 16.5219C30.2979 16.3939 30.625 15.9865 30.625 15.521V9.74231C30.6188 9.16618 30.1251 8.70063 29.514 8.70063ZM13.9942 8.70063L15.0157 7.03337H19.9781L20.9996 8.70063H13.9942Z" fill="#8E5BCF"/>
<path d="M18.9659 20.5577V21.9137C18.9659 22.6789 18.3085 23.2987 17.4969 23.2987C16.6853 23.2987 16.028 22.6789 16.028 21.9137V20.5577L4.86568 17.5433C4.69286 17.4967 4.5293 17.4298 4.375 17.3483V27.4625C4.375 28.0386 4.86877 28.5042 5.47981 28.5042H29.514C30.1251 28.5042 30.6188 28.0386 30.6188 27.4625V17.3483C30.4645 17.4298 30.301 17.4967 30.1281 17.5433L18.9659 20.5577Z" fill="#8E5BCF"/>
</g>
</svg>
