<svg width="36" height="38" viewBox="0 0 36 38" fill="none" xmlns="http://www.w3.org/2000/svg">
<circle cx="10" cy="10" r="10" fill="#F4F4F4"/>
<mask id="mask0" mask-type="alpha" maskUnits="userSpaceOnUse" x="1" y="3" width="35" height="35">
<rect x="1" y="3" width="35" height="35" fill="#C4C4C4"/>
</mask>
<g mask="url(#mask0)">
<path d="M26.9588 8H10.8714C9.5622 8 8.5 9.02321 8.5 10.2844V32.7176C8.5 33.0359 8.76864 33.2976 9.10212 33.2976H28.7312C29.0616 33.2976 29.3333 33.0388 29.3333 32.7176V10.2844C29.3302 9.02321 28.268 8 26.9588 8ZM11.3408 10.1624H26.4926V12.5033H11.3408V10.1624ZM28.1291 30.7307C27.7833 30.5403 27.3849 30.4332 26.9588 30.4332H10.8714C10.4453 30.4332 10.047 30.5433 9.70424 30.7307V13.6574H18.3161V15.5789C17.3928 15.8317 16.7135 16.6497 16.7135 17.6193C16.7135 18.589 17.3928 19.407 18.3161 19.6598V27.2C18.3161 27.5183 18.5847 27.78 18.9182 27.78C19.2486 27.78 19.5172 27.5213 19.5172 27.2V19.6598C20.4405 19.407 21.1198 18.589 21.1198 17.6193C21.1198 16.6497 20.4405 15.8317 19.5172 15.5789V13.6574H28.1291V30.7307ZM18.9151 16.6556C19.4678 16.6556 19.9156 17.0869 19.9156 17.6193C19.9156 18.1518 19.4647 18.5831 18.9151 18.5831C18.3624 18.5831 17.9147 18.1518 17.9147 17.6193C17.9147 17.0899 18.3624 16.6556 18.9151 16.6556Z" fill="#3A80D1"/>
</g>
</svg>
