<svg width="115" height="115" viewBox="0 0 115 115" fill="none" xmlns="http://www.w3.org/2000/svg">
<mask id="mask0" mask-type="alpha" maskUnits="userSpaceOnUse" x="0" y="0" width="115" height="115">
<rect width="115" height="115" fill="#C4C4C4"/>
</mask>
<g mask="url(#mask0)">
<line x1="18.0002" y1="26.3488" x2="64.3948" y2="26.3488" stroke="#FFAA5B" stroke-width="5"/>
<line x1="20.5002" y1="78.1381" x2="55.4211" y2="78.1381" stroke="#FFAA5B" stroke-width="5" stroke-linecap="round"/>
<line x1="39.9213" y1="19.8751" x2="43.5528" y2="19.8751" stroke="#FFAA5B" stroke-width="5" stroke-linecap="round"/>
<path d="M46.0527 40.4059C43.9198 39.8168 42.4277 39.0527 41.737 38.5593C38.2844 41.1488 32.7458 41.4365 30.4081 41.2567C29.1011 48.282 29.6598 53.7765 31.142 57.9803M46.0527 40.4059C47.8069 40.8905 49.9945 41.2567 52.5264 41.2567C53.8527 45.9589 54.5646 54.4444 50.8571 61.2171M46.0527 40.4059C43.1755 41.7685 38.1764 46.4356 41.1975 54.204M41.1975 54.204C43.5013 54.0242 48.6585 55.175 50.8571 61.2171M41.1975 54.204C40.6078 55.6426 37.7712 58.4119 31.142 57.9803M50.8571 61.2171C49.035 64.5456 46.1455 67.4605 41.737 69.3092C38.4963 68.3035 33.575 64.881 31.142 57.9803" stroke="#FFAA5B" stroke-width="5" stroke-linecap="round"/>
<path d="M69.25 48.2698C70.3289 48.2698 98.3815 52.5855 96.2237 81.1775C95.6843 86.0328 95.6843 96.2827 100 98.4406M66.5528 94.1248C68.3511 95.024 71.9475 97.5775 71.9475 100.599M81.658 69.3092C75.9037 64.4539 65.1501 55.6066 61.6974 52.5855C57.3817 48.8092 49.8291 53.125 55.7633 60.6776L64.9344 73.6249C65.1142 78.66 68.387 89.2696 80.0396 91.4275" stroke="#FFAA5B" stroke-width="5" stroke-linecap="round"/>
<path d="M64.3948 50.4277V23.4541C64.215 21.2962 62.4527 16.7646 56.8422 15.9015H27.1713C24.8336 15.9015 19.9424 17.412 19.0792 23.4541V86.5722C19.6187 88.91 21.9924 93.5854 27.1713 93.5854H57.3817C59.3598 93.2257 63.5317 91.2117 64.3948 86.0328V83.8749" stroke="#FFAA5B" stroke-width="5" stroke-linecap="round"/>
</g>
</svg>
