<svg width="35" height="34" viewBox="0 0 35 34" fill="none" xmlns="http://www.w3.org/2000/svg">
<mask id="mask0" mask-type="alpha" maskUnits="userSpaceOnUse" x="0" y="0" width="35" height="34">
<rect width="35" height="34" fill="#C4C4C4"/>
</mask>
<g mask="url(#mask0)">
<path d="M22.2132 16.0327C19.4433 16.0327 17.1904 18.2212 17.1904 20.912C17.1904 22.1694 17.6812 23.3148 18.4881 24.1786V28.9075C18.4881 29.1987 18.6429 29.4706 18.8965 29.6274C19.1501 29.7842 19.4696 29.8002 19.7397 29.6754L22.2132 28.5268L24.6867 29.6754C24.8052 29.7298 24.9337 29.7586 25.0621 29.7586C25.2268 29.7586 25.3882 29.7138 25.5298 29.6274C25.7834 29.4706 25.9382 29.2019 25.9382 28.9075V24.1786C26.7419 23.3116 27.2326 22.1662 27.2326 20.912C27.2359 18.2212 24.9831 16.0327 22.2132 16.0327ZM22.2132 24.0923C20.4083 24.0923 18.9393 22.6653 18.9393 20.912C18.9393 19.1586 20.4083 17.7316 22.2132 17.7316C24.0181 17.7316 25.487 19.1586 25.487 20.912C25.487 22.6653 24.0181 24.0923 22.2132 24.0923Z" fill="#12A3CC"/>
<path d="M29.7489 2.55005H5.2511C4.76694 2.55005 4.375 2.93079 4.375 3.40112V22.163C4.375 22.6333 4.76694 23.014 5.2511 23.014H16.5251C16.311 22.4733 16.1826 21.9006 16.1397 21.3151H10.5505C10.3726 19.0467 8.47883 17.2421 6.1272 17.1334V8.43073C8.47883 8.32194 10.3759 6.51743 10.5505 4.24898H24.4495C24.6274 6.51743 26.5212 8.32194 28.8728 8.43073V17.1302C28.28 17.159 27.7135 17.2933 27.1997 17.5173C27.8946 18.4804 28.3063 19.6514 28.3063 20.912C28.3063 21.6383 28.1647 22.3453 27.9045 23.0108H29.7489C30.2331 23.0108 30.625 22.6301 30.625 22.1598V3.40112C30.625 2.93079 30.2298 2.55005 29.7489 2.55005Z" fill="#12A3CC"/>
<path d="M20.741 8.73143C21.2251 8.73143 21.6171 8.35069 21.6171 7.88036C21.6171 7.41004 21.2251 7.0293 20.741 7.0293H14.2592C13.775 7.0293 13.3831 7.41004 13.3831 7.88036C13.3831 8.35069 13.775 8.73143 14.2592 8.73143H20.741Z" fill="#12A3CC"/>
<path d="M9.83569 13.422C9.83569 13.8923 10.2276 14.2731 10.7118 14.2731H24.2913C24.7755 14.2731 25.1674 13.8923 25.1674 13.422C25.1674 12.9517 24.7755 12.5709 24.2913 12.5709H10.7085C10.2276 12.5709 9.83569 12.9517 9.83569 13.422Z" fill="#12A3CC"/>
<path d="M12.2665 17.3542H17.3485C17.8985 16.6471 18.6067 16.0648 19.4202 15.6553H12.2665C11.7823 15.6553 11.3904 16.036 11.3904 16.5063C11.3904 16.9735 11.7823 17.3542 12.2665 17.3542Z" fill="#12A3CC"/>
</g>
</svg>
