<svg width="38" height="38" viewBox="0 0 38 38" fill="none" xmlns="http://www.w3.org/2000/svg">
<circle cx="10" cy="10" r="10" fill="#F4F4F4"/>
<mask id="mask0" mask-type="alpha" maskUnits="userSpaceOnUse" x="3" y="3" width="35" height="35">
<rect x="3" y="3" width="35" height="35" fill="#C4C4C4"/>
</mask>
<g mask="url(#mask0)">
<path d="M21.636 18.2974C21.115 18.2974 20.6906 18.7218 20.6906 19.2427V21.0281H19.877C19.356 21.0281 18.9316 21.4525 18.9316 21.9734C18.9316 22.4944 19.356 22.9188 19.877 22.9188H26.3335C26.8544 22.9188 27.2788 22.4944 27.2788 21.9734C27.2788 21.4525 26.8544 21.0281 26.3335 21.0281H25.5198V16.8252C25.5198 16.3043 25.0954 15.8799 24.5745 15.8799C24.0535 15.8799 23.6291 16.3043 23.6291 16.8252V21.0252H22.5784V19.2398C22.5813 18.7189 22.1569 18.2974 21.636 18.2974Z" fill="#3A80D1"/>
<path d="M17.3894 16.4184C17.0469 16.0233 16.4499 15.9794 16.0548 16.3219L7.54955 23.671C7.15443 24.0134 7.11053 24.6105 7.45296 25.0056C7.64028 25.2222 7.90369 25.3334 8.16709 25.3334C8.3866 25.3334 8.60611 25.2573 8.78464 25.1022L17.2899 17.7501C17.685 17.4106 17.7289 16.8136 17.3894 16.4184Z" fill="#3A80D1"/>
<path d="M31.1656 10H10.5816C10.0606 10 9.63623 10.4244 9.63623 10.9453V12.4848C9.63623 13.0058 10.0606 13.4302 10.5816 13.4302H11.0352V19.0759L12.9259 17.4428V13.6614H28.8183V24.47H12.9289V23.1032L11.0382 24.7363V25.4153C11.0382 25.9363 11.4625 26.3607 11.9835 26.3607H16.201L15.1298 30.4494C14.9981 30.9528 15.2995 31.4708 15.8059 31.6025C15.8849 31.623 15.9668 31.6347 16.0459 31.6347C16.4644 31.6347 16.8478 31.3538 16.959 30.9294L18.1151 26.5187C18.1297 26.466 18.1356 26.4134 18.1385 26.3636H23.6116C23.6174 26.4163 23.6233 26.469 23.635 26.5187L24.7911 30.9294C24.9023 31.3538 25.2857 31.6347 25.7042 31.6347C25.7833 31.6347 25.8652 31.623 25.9442 31.6025C26.4506 31.4708 26.752 30.9528 26.6203 30.4494L25.5491 26.3607H29.7666C30.2876 26.3607 30.712 25.9363 30.712 25.4153V13.4302H31.1656C31.6866 13.4302 32.1109 13.0058 32.1109 12.4848V10.9453C32.1109 10.4244 31.6866 10 31.1656 10Z" fill="#3A80D1"/>
</g>
</svg>
