<svg width="30" height="30" viewBox="0 0 30 30" fill="none" xmlns="http://www.w3.org/2000/svg">
<mask id="mask0" mask-type="alpha" maskUnits="userSpaceOnUse" x="0" y="0" width="30" height="30">
<rect width="30" height="30" fill="#C4C4C4"/>
</mask>
<g mask="url(#mask0)">
<path d="M26.1942 9.32482C25.9843 9.32482 25.7836 9.35569 25.5923 9.40816C23.7494 5.62068 19.8632 3 15.375 3C10.8868 3 6.99747 5.62068 5.15775 9.40816C4.96637 9.35569 4.76573 9.32482 4.55583 9.32482C3.28407 9.32482 2.25 10.362 2.25 11.6306V17.0696C2.25 18.3413 3.28407 19.3754 4.55583 19.3754C5.82758 19.3754 6.86165 18.3413 6.86165 17.0696V11.6306C6.86165 11.4207 6.83079 11.2139 6.77831 11.0195C8.11489 7.5777 11.464 5.12679 15.375 5.12679C19.286 5.12679 22.6351 7.57461 23.9717 11.0195C23.9192 11.2139 23.8883 11.4177 23.8883 11.6306V17.0696C23.8883 17.2795 23.9192 17.4863 23.9717 17.6807C22.8944 20.4496 20.5207 22.5733 17.6006 23.3018C17.1437 22.5455 16.3196 22.0393 15.375 22.0393C13.9396 22.0393 12.7728 23.2061 12.7728 24.6414C12.7728 26.0768 13.9396 27.2436 15.375 27.2436C16.5356 27.2436 17.5172 26.4812 17.8537 25.4317C21.2646 24.6692 24.1013 22.3696 25.5923 19.2982C25.7836 19.3507 25.9874 19.3816 26.1942 19.3816C27.4659 19.3816 28.5 18.3475 28.5 17.0757V11.6306C28.5 10.362 27.4659 9.32482 26.1942 9.32482Z" fill="#2061C2"/>
<path d="M14.1434 12.4301C14.1434 11.751 13.5909 11.1985 12.9118 11.1985C12.2327 11.1985 11.6802 11.7479 11.6802 12.4301C11.6802 13.1092 12.2327 13.6587 12.9118 13.6587C13.594 13.6587 14.1434 13.1092 14.1434 12.4301Z" fill="#2061C2"/>
<path d="M19.0668 12.4301C19.0668 11.751 18.5142 11.1985 17.8351 11.1985C17.1561 11.1985 16.6035 11.7479 16.6035 12.4301C16.6035 13.1092 17.1561 13.6587 17.8351 13.6587C18.5142 13.6587 19.0668 13.1092 19.0668 12.4301Z" fill="#2061C2"/>
<path d="M19.5051 15.1835H11.2449C11.2449 17.4646 13.0939 19.3136 15.375 19.3136C17.6561 19.3105 19.5051 17.4615 19.5051 15.1835Z" fill="#2061C2"/>
</g>
</svg>
