<svg width="37" height="38" viewBox="0 0 37 38" fill="none" xmlns="http://www.w3.org/2000/svg">
<circle cx="10" cy="10" r="10" fill="#F4F4F4"/>
<mask id="mask0" mask-type="alpha" maskUnits="userSpaceOnUse" x="2" y="3" width="35" height="35">
<rect x="2" y="3" width="35" height="35" fill="#C4C4C4"/>
</mask>
<g mask="url(#mask0)">
<path d="M11.7812 32.7474C11.7812 33.2276 12.1718 33.6181 12.652 33.6181H13.6347C14.1149 33.6181 14.5054 33.2276 14.5054 32.7474V29.9849H11.7845V32.7474H11.7812Z" fill="#3A80D1"/>
<path d="M24.7104 32.7474C24.7104 33.2276 25.101 33.6181 25.5812 33.6181H26.5639C27.0441 33.6181 27.4346 33.2276 27.4346 32.7474V29.9849H24.7137V32.7474H24.7104Z" fill="#3A80D1"/>
<path d="M31.8105 11.9114C31.0327 11.9114 30.402 12.542 30.402 13.3199V16.0408C30.402 16.0953 30.4052 16.1465 30.4116 16.1977L29.2336 17.3725V9.29931C29.2336 8.3966 28.5038 7.66675 27.6011 7.66675H11.6179C10.7152 7.66675 9.98538 8.3966 9.98538 9.29931V17.3757L8.80737 16.2009C8.81377 16.1497 8.81698 16.0985 8.81698 16.044V13.3231C8.81698 12.5452 8.18636 11.9146 7.40849 11.9146C6.63062 11.9146 6 12.5452 6 13.3231V16.044C6 16.8219 6.63062 17.4525 7.40849 17.4525C7.63897 17.4525 7.85664 17.3949 8.05191 17.2957L9.98858 19.2324V26.7389C9.98858 27.6417 10.7184 28.3715 11.6211 28.3715H27.6011C28.5038 28.3715 29.2336 27.6385 29.2336 26.7389V19.2356L31.1703 17.2989C31.3624 17.3981 31.5801 17.4557 31.8137 17.4557C32.5916 17.4557 33.2222 16.8251 33.2222 16.0472V13.3263C33.219 12.5452 32.5884 11.9114 31.8105 11.9114ZM27.7163 22.0333C27.7163 22.6287 27.2329 23.1153 26.6343 23.1153C26.0357 23.1153 25.5524 22.6319 25.5524 22.0333C25.5524 21.4347 26.0357 20.9513 26.6343 20.9513C27.2329 20.9513 27.7163 21.4347 27.7163 22.0333ZM20.1777 11.3032H27.1337V17.2733H20.1777V11.3032ZM12.0821 11.3032H19.0381V17.2733H12.0821V11.3032ZM12.5783 20.9513C13.1769 20.9513 13.6603 21.4347 13.6603 22.0333C13.6603 22.6287 13.1769 23.1153 12.5783 23.1153C11.9797 23.1153 11.4963 22.6319 11.4963 22.0333C11.4995 21.4347 11.9829 20.9513 12.5783 20.9513ZM27.4794 25.9259H11.7364C11.5219 25.9259 11.3458 25.753 11.3458 25.5353C11.3458 25.3209 11.5187 25.1448 11.7364 25.1448H27.4826C27.6971 25.1448 27.8732 25.3177 27.8732 25.5353C27.87 25.7498 27.6971 25.9259 27.4794 25.9259Z" fill="#3A80D1"/>
</g>
</svg>
