<svg width="36" height="38" viewBox="0 0 36 38" fill="none" xmlns="http://www.w3.org/2000/svg">
<circle cx="10" cy="10" r="10" fill="#F4F4F4"/>
<mask id="mask0" mask-type="alpha" maskUnits="userSpaceOnUse" x="1" y="3" width="35" height="35">
<rect x="1" y="3" width="35" height="35" fill="#C4C4C4"/>
</mask>
<g mask="url(#mask0)">
<path d="M29.694 13.9276C29.218 13.9276 28.8326 14.313 28.8326 14.7891V24.8292H8.94227V14.7863C8.94227 14.3102 8.55688 13.9248 8.0808 13.9248C7.60756 13.9276 7.22217 14.313 7.22217 14.7863V31.6813C7.22217 32.1573 7.60756 32.5427 8.08364 32.5427H29.694C30.1701 32.5427 30.5555 32.1573 30.5555 31.6813V14.7863C30.5555 14.313 30.1701 13.9276 29.694 13.9276Z" fill="#3A80D1"/>
<path d="M10.6963 23.6164C11.1724 23.6164 11.5578 23.231 11.5578 22.7549V15.3588H15.8934C16.3695 15.3588 16.7549 14.9734 16.7549 14.4973V10.1644H26.2226V22.7549C26.2226 23.231 26.608 23.6164 27.084 23.6164C27.5601 23.6164 27.9455 23.231 27.9455 22.7549V9.3058C27.9455 8.82973 27.5601 8.44434 27.084 8.44434H15.8934C15.8878 8.44434 15.8821 8.44434 15.8764 8.44717C15.7744 8.45 15.6724 8.46984 15.5789 8.50668C15.5647 8.51235 15.5534 8.51801 15.5421 8.52368C15.5081 8.54068 15.474 8.55769 15.44 8.57752C15.4287 8.58602 15.4174 8.59169 15.4032 8.60019C15.3607 8.62853 15.321 8.6597 15.2842 8.69938L10.087 13.8909C10.0502 13.9277 10.019 13.9674 9.99069 14.0099C9.98218 14.0212 9.97652 14.0354 9.96802 14.0467C9.94818 14.0807 9.92834 14.1119 9.91417 14.1487C9.90851 14.1629 9.90284 14.1742 9.89717 14.1884C9.88017 14.2337 9.86317 14.2819 9.85466 14.3301V14.3329C9.84616 14.3839 9.8405 14.4321 9.8405 14.4831C9.8405 14.4888 9.83766 14.4945 9.83766 14.5001V22.7549C9.83483 23.231 10.2202 23.6164 10.6963 23.6164Z" fill="#3A80D1"/>
<path d="M22.6181 17.8809H15.1596C14.6835 17.8809 14.2981 18.2663 14.2981 18.7423C14.2981 19.2184 14.6835 19.6038 15.1596 19.6038H22.6181C23.0941 19.6038 23.4795 19.2184 23.4795 18.7423C23.4795 18.2663 23.0941 17.8809 22.6181 17.8809Z" fill="#3A80D1"/>
<path d="M22.6181 21.0688H15.1596C14.6835 21.0688 14.2981 21.4542 14.2981 21.9303C14.2981 22.4064 14.6835 22.7918 15.1596 22.7918H22.6181C23.0941 22.7918 23.4795 22.4064 23.4795 21.9303C23.4795 21.4542 23.0941 21.0688 22.6181 21.0688Z" fill="#3A80D1"/>
</g>
</svg>
