<?xml version="1.0" encoding="utf-8"?>
<!-- Generator: Adobe Illustrator 16.0.0, SVG Export Plug-In . SVG Version: 6.00 Build 0)  -->
<!DOCTYPE svg PUBLIC "-//W3C//DTD SVG 1.1//EN" "http://www.w3.org/Graphics/SVG/1.1/DTD/svg11.dtd">
<svg version="1.1" id="Layer_1" xmlns="http://www.w3.org/2000/svg" xmlns:xlink="http://www.w3.org/1999/xlink" x="0px" y="0px"
	 width="44.113px" height="15.372px" viewBox="0 0 44.113 15.372" enable-background="new 0 0 44.113 15.372" xml:space="preserve">
<g id="그룹_3235" transform="translate(-697.092 -129.788)">
	<g id="패스_68569">
		<path fill="#FFFFFF" d="M701.6,130.411c0,0-0.092-0.031-0.275-0.08c-0.271-0.071-0.545-0.126-0.822-0.165
			c-0.446-0.067-0.898-0.072-1.346-0.014c-0.28,0.038-0.552,0.127-0.8,0.261c-0.278,0.154-0.508,0.386-0.657,0.667
			c-0.155,0.32-0.237,0.672-0.238,1.028c0,0.395,0.045,0.788,0.132,1.173c0.2,0.865,0.531,1.693,0.981,2.458
			c1.126,1.813,2.639,3.356,4.431,4.517c2.109,1.386,4.422,2.433,6.854,3.106c2.723,0.758,5.527,1.18,8.354,1.258
			c3.03,0.104,6.063-0.144,9.038-0.732c3.074-0.59,6.012-1.748,8.661-3.417c1.313-0.834,2.471-1.894,3.418-3.129
			c0.463-0.602,0.813-1.283,1.032-2.01c0.106-0.35,0.153-0.716,0.136-1.082l-0.005-0.134l-0.022-0.131l-0.021-0.131l-0.006-0.032
			c0-0.013,0,0-0.006-0.022l-0.021-0.07l-0.084-0.279c-0.033-0.084-0.069-0.16-0.101-0.24c-0.313-0.65-0.848-1.167-1.507-1.458
			c-0.675-0.296-1.395-0.475-2.128-0.527c-1.477-0.095-2.956,0.002-4.407,0.288c-2.774,0.534-5.498,1.308-8.14,2.313
			c-2.401,0.932-4.938,1.469-7.513,1.589c-1.154,0.016-2.303-0.159-3.399-0.518c-0.521-0.162-1.013-0.371-1.482-0.561l-1.374-0.568
			c-1.776-0.736-3.313-1.4-4.601-1.9c-0.641-0.256-1.218-0.468-1.717-0.662l-1.279-0.459l-1.079-0.337H701.6z M701.617,130.36
			l1.086,0.323l1.287,0.444c0.5,0.187,1.083,0.393,1.728,0.641l4.648,1.77l1.391,0.522c0.48,0.176,0.965,0.363,1.479,0.5
			c1.069,0.305,2.181,0.44,3.292,0.4c1.212-0.049,2.416-0.226,3.591-0.526c1.229-0.3,2.474-0.681,3.747-1.133
			c2.665-1.033,5.419-1.817,8.228-2.344c1.499-0.281,3.029-0.366,4.552-0.254c0.795,0.063,1.572,0.265,2.3,0.594
			c0.764,0.346,1.377,0.956,1.727,1.719c0.041,0.1,0.085,0.2,0.12,0.3l0.079,0.28l0.021,0.07c0.006,0.016,0.01,0.033,0.013,0.049
			l0.006,0.039l0.025,0.157l0.023,0.157v0.157c0.014,0.415-0.044,0.83-0.17,1.225c-0.246,0.772-0.629,1.495-1.133,2.13
			c-0.999,1.248-2.212,2.31-3.581,3.136c-1.346,0.836-2.776,1.525-4.27,2.058c-1.471,0.543-2.979,0.97-4.518,1.275
			c-2.989,0.595-6.03,0.883-9.077,0.86c-1.458-0.006-2.915-0.103-4.361-0.285c-1.39-0.172-2.764-0.445-4.112-0.82
			c-1.281-0.348-2.532-0.801-3.739-1.354c-1.129-0.521-2.21-1.14-3.229-1.85c-1.806-1.23-3.308-2.854-4.394-4.749
			c-0.438-0.797-0.751-1.656-0.929-2.548c-0.192-0.756-0.134-1.553,0.166-2.273c0.161-0.296,0.403-0.539,0.7-0.7
			c0.26-0.137,0.542-0.226,0.833-0.262c0.455-0.054,0.914-0.044,1.365,0.029c0.279,0.042,0.557,0.101,0.828,0.176
			C701.52,130.326,701.616,130.359,701.617,130.36L701.617,130.36z"/>
		<g>
			<path fill="#FFFFFF" d="M701.592,130.435c-0.581-0.164-1.178-0.268-1.783-0.29c-0.591,0.016-1.228,0.087-1.681,0.49
				c-0.919,0.831-0.623,2.286-0.256,3.357c0.145,0.596,0.471,1.105,0.722,1.649c0.329,0.493,0.68,1.001,1.047,1.475
				c0.778,0.914,1.625,1.783,2.607,2.485c0.483,0.363,0.972,0.704,1.505,1c0.518,0.314,1.038,0.628,1.585,0.878
				c0.54,0.268,1.073,0.548,1.641,0.756c0.562,0.22,1.112,0.469,1.695,0.631c1.14,0.39,2.32,0.658,3.502,0.921l1.779,0.317
				l1.798,0.213c1.205,0.101,2.401,0.177,3.616,0.16c1.215,0.029,2.413-0.067,3.615-0.149l1.799-0.204
				c0.598-0.078,1.19-0.197,1.785-0.294c0.599-0.085,1.171-0.24,1.766-0.384c0.587-0.147,1.187-0.267,1.743-0.485
				c0.564-0.2,1.137-0.382,1.695-0.596l1.644-0.745c0.557-0.23,1.054-0.577,1.584-0.859l0.782-0.447l0.736-0.516
				c0.95-0.719,1.82-1.537,2.551-2.485c0.305-0.46,0.71-0.998,0.868-1.529c0.251-0.516,0.352-1.1,0.323-1.66l0.004,0.031
				l-0.05-0.291l-0.007-0.04l0.001-0.002l0.002,0.001c0.06,0.217,0.004,0.03,0.004,0.043l-0.007-0.023l-0.015-0.047l-0.028-0.092
				l-0.057-0.186l0.006,0.019l-0.102-0.241l0.007,0.016c-0.355-0.704-0.99-1.237-1.762-1.46l-0.604-0.203
				c-0.199-0.048-0.396-0.064-0.594-0.099c-0.194-0.022-0.404-0.082-0.584-0.076h-0.637l-1.274,0.001
				c-0.423,0.009-0.827,0.097-1.241,0.141c-0.408,0.061-0.833,0.094-1.227,0.176l-1.24,0.295l-2.479,0.59
				c-0.816,0.224-1.604,0.521-2.408,0.776l-2.416,0.792l-1.208,0.404l-1.253,0.314c-0.831,0.239-1.687,0.313-2.529,0.469
				l-1.28,0.109l-0.64,0.051c-0.255,0.014-0.436-0.024-0.657-0.033c-0.423-0.039-0.847-0.05-1.271-0.111l-1.268-0.31
				c-0.433-0.08-0.815-0.279-1.214-0.419c-0.392-0.148-0.801-0.31-1.189-0.479l-4.692-1.988c-0.777-0.344-1.57-0.646-2.357-0.967
				c-0.79-0.306-1.587-0.597-2.398-0.85l0.007,0.001H701.6C701.597,130.436,701.595,130.435,701.592,130.435z M701.602,130.386
				h0.004l0.008,0.001c3.274,0.951,6.381,2.337,9.542,3.588c0.394,0.164,0.776,0.31,1.182,0.457
				c0.403,0.135,0.788,0.327,1.196,0.394l1.211,0.281c0.416,0.054,0.846,0.06,1.268,0.092c0.202,0.006,0.446,0.042,0.614,0.023
				l0.629-0.06l1.257-0.125c0.825-0.165,1.67-0.25,2.472-0.495l1.215-0.322l1.202-0.421l2.419-0.823
				c0.814-0.26,1.621-0.56,2.441-0.785l2.479-0.589l1.24-0.295c0.437-0.091,0.862-0.123,1.294-0.186
				c0.429-0.046,0.863-0.135,1.289-0.143l1.273,0h0.638c0.246-0.004,0.45,0.058,0.678,0.085c0.22,0.04,0.449,0.064,0.659,0.118
				l0.603,0.208c0.858,0.253,1.631,0.896,2.028,1.72l0.004,0.01l0.003,0.006l0.1,0.24l0.006,0.019l0.056,0.186l0.027,0.093
				l0.014,0.045l0.007,0.023c0.005,0.028-0.043-0.144,0.017,0.089l-0.004-0.04l0.048,0.297l0.004,0.031
				c0.024,0.654-0.096,1.285-0.379,1.865c-0.218,0.629-0.568,1.069-0.933,1.609c-0.757,0.969-1.674,1.818-2.66,2.551l-0.756,0.521
				l-0.799,0.449c-0.54,0.284-1.047,0.633-1.613,0.864l-1.673,0.745c-0.571,0.216-1.158,0.398-1.736,0.599
				c-0.576,0.22-1.17,0.334-1.759,0.479c-0.583,0.137-1.184,0.295-1.787,0.377c-0.601,0.094-1.198,0.21-1.802,0.286l-1.814,0.193
				c-1.214,0.076-2.437,0.166-3.646,0.13c-1.208,0.01-2.435-0.075-3.642-0.184l-1.811-0.226l-1.797-0.332
				c-1.18-0.27-2.364-0.551-3.516-0.954c-0.586-0.168-1.14-0.424-1.705-0.65c-0.57-0.214-1.109-0.502-1.653-0.777
				c-0.554-0.259-1.07-0.576-1.585-0.895c-0.527-0.298-1.028-0.653-1.512-1.022c-0.986-0.717-1.836-1.602-2.618-2.538
				c-0.369-0.484-0.705-0.98-1.042-1.495c-0.253-0.556-0.581-1.086-0.719-1.678c-0.078-0.296-0.204-0.564-0.243-0.884l-0.098-0.903
				c-0.016-0.616,0.164-1.263,0.653-1.666c0.48-0.415,1.131-0.48,1.733-0.491C700.419,130.108,701.02,130.217,701.602,130.386z"/>
			<path fill="#FFFFFF" d="M701.624,130.336c1.705,0.466,3.348,1.117,5.001,1.729l4.954,1.857c0.835,0.279,1.647,0.609,2.524,0.735
				c0.432,0.09,0.865,0.185,1.302,0.173c0.434,0.005,0.874,0.058,1.302,0.025c0.878-0.083,1.761-0.148,2.609-0.361
				c0.863-0.136,1.688-0.456,2.538-0.699c0.839-0.265,1.695-0.501,2.52-0.791l2.506-0.85c0.824-0.314,1.689-0.51,2.552-0.71
				l2.585-0.617c0.896-0.104,1.749-0.26,2.641-0.292l1.34,0.007l0.685,0.008l0.652,0.108c0.437,0.041,0.867,0.202,1.298,0.357
				c0.206,0.066,0.45,0.155,0.631,0.273c0.194,0.098,0.384,0.218,0.563,0.382c0.717,0.589,1.203,1.469,1.304,2.372l0.001,0.011
				l0.001,0.015c-0.005,0.307-0.01,0.574-0.049,0.872c-0.059,0.287-0.128,0.629-0.255,0.875l-0.33,0.793
				c-0.15,0.253-0.319,0.502-0.48,0.753c-0.681,0.966-1.488,1.785-2.412,2.513c-0.438,0.383-0.943,0.678-1.421,1.008l-1.511,0.839
				c-0.487,0.299-1.029,0.514-1.565,0.738c-0.541,0.213-1.06,0.483-1.619,0.647l-1.633,0.538c-0.548,0.171-1.121,0.285-1.682,0.43
				l-0.856,0.208l-0.85,0.128l-1.7,0.255l-1.7,0.252c-0.568,0.079-1.152,0.066-1.728,0.104c-1.156,0.04-2.304,0.127-3.467,0.126
				l-1.718-0.06c-0.575-0.038-1.152-0.105-1.728-0.156c-0.579-0.04-1.158-0.149-1.717-0.237c-0.565-0.086-1.132-0.174-1.695-0.331
				c-1.14-0.248-2.243-0.608-3.322-0.978l-1.608-0.671c-0.543-0.247-1.024-0.527-1.54-0.789c-0.992-0.57-1.994-1.22-2.871-1.943
				c-0.893-0.73-1.696-1.597-2.398-2.511c-0.351-0.459-0.636-0.967-0.956-1.448c-0.264-0.539-0.511-1.032-0.689-1.591
				c-0.148-0.563-0.338-1.13-0.393-1.699c-0.032-0.605,0.076-1.188,0.293-1.735l0.004-0.008l0.174-0.229
				c0.063-0.071,0.107-0.161,0.185-0.217l0.231-0.168c0.072-0.052,0.16-0.124,0.246-0.147c0.169-0.067,0.334-0.145,0.528-0.171
				c0.187-0.05,0.378-0.057,0.556-0.059c0.183-0.003,0.364-0.025,0.55,0.006c0.185,0.021,0.368,0.033,0.553,0.063l0.535,0.122
				c0.178,0.034,0.371,0.093,0.536,0.149L701.624,130.336z M701.581,130.375c-0.173-0.054-0.326-0.094-0.5-0.123l-0.538-0.106
				c-0.176-0.023-0.358-0.03-0.537-0.046c-0.178-0.025-0.362,0.001-0.544,0.009c-0.188,0.008-0.361,0.02-0.528,0.07
				c-0.085,0.025-0.172,0.026-0.255,0.071l-0.251,0.109c-0.092,0.029-0.14,0.084-0.216,0.14l-0.208,0.159
				c-0.07,0.052-0.107,0.137-0.162,0.203l-0.153,0.21l0.003-0.008c-0.192,0.526-0.275,1.09-0.234,1.633
				c0.076,0.574,0.257,1.097,0.407,1.64c0.172,0.526,0.451,1.066,0.695,1.547c0.322,0.467,0.607,0.96,0.957,1.406
				c0.708,0.893,1.481,1.707,2.371,2.416c0.904,0.723,1.842,1.308,2.841,1.867c0.509,0.25,1.026,0.538,1.529,0.757l1.574,0.632
				c1.095,0.356,2.177,0.693,3.283,0.917c0.545,0.142,1.109,0.238,1.677,0.322c0.573,0.091,1.122,0.195,1.688,0.233
				c0.565,0.051,1.127,0.117,1.695,0.155l1.718,0.061c1.128,0.001,2.269-0.085,3.402-0.123c0.567-0.036,1.136-0.021,1.703-0.1
				l1.701-0.246l1.702-0.243l0.851-0.121l0.815-0.193c0.55-0.139,1.104-0.242,1.651-0.408l1.637-0.525
				c0.544-0.155,1.05-0.415,1.576-0.617c0.522-0.214,1.05-0.416,1.545-0.714l1.503-0.819c0.465-0.318,0.957-0.601,1.386-0.971
				c0.882-0.679,1.706-1.513,2.347-2.411l0.451-0.69l0.336-0.792c0.136-0.269,0.164-0.495,0.232-0.767
				c0.039-0.266,0.048-0.577,0.053-0.841l0.002,0.026c-0.09-0.856-0.53-1.619-1.16-2.157c-0.144-0.141-0.323-0.258-0.524-0.361
				c-0.19-0.125-0.364-0.18-0.577-0.254c-0.398-0.146-0.793-0.305-1.241-0.35l-0.652-0.111l-0.638-0.008l-1.306-0.016
				c-0.867,0.023-1.761,0.18-2.615,0.273l-2.565,0.597c-0.856,0.193-1.715,0.381-2.544,0.691l-2.511,0.833
				c-0.843,0.287-1.689,0.514-2.534,0.773c-0.847,0.235-1.68,0.55-2.564,0.684c-0.87,0.209-1.75,0.266-2.628,0.342
				c-0.45,0.032-0.893-0.026-1.339-0.036c-0.451,0.006-0.881-0.092-1.312-0.186c-0.875-0.133-1.707-0.475-2.541-0.761l-4.94-1.897
				c-1.648-0.625-3.286-1.288-4.983-1.767L701.581,130.375z"/>
		</g>
	</g>
	<g id="패스_68570">
		<path fill="#FFFFFF" d="M712.369,134.54c0,0,0.092,0.033,0.266,0.084c0.174,0.051,0.432,0.12,0.755,0.214
			c0.329,0.079,0.725,0.188,1.187,0.279c0.462,0.09,0.981,0.189,1.55,0.294c0.283,0.053,0.584,0.086,0.891,0.132
			c0.308,0.046,0.625,0.1,0.955,0.126l1.012,0.107c0.345,0.034,0.699,0.05,1.06,0.077c0.718,0.066,1.463,0.063,2.219,0.089
			c0.378,0.021,0.759,0,1.143,0l1.15-0.021c0.768-0.04,1.535-0.088,2.29-0.139c0.751-0.089,1.493-0.161,2.21-0.239l2.057-0.32
			c0.329-0.042,0.643-0.115,0.947-0.177l0.885-0.179c0.565-0.12,1.092-0.2,1.545-0.33l1.184-0.3
			c0.656-0.162,1.036-0.248,1.036-0.248s-0.364,0.131-1.007,0.349l-1.16,0.389c-0.445,0.164-0.964,0.289-1.526,0.438
			s-1.17,0.328-1.826,0.45l-2.064,0.4c-0.723,0.093-1.47,0.2-2.23,0.287c-0.764,0.057-1.541,0.114-2.317,0.159l-1.166,0.012
			c-0.388,0-0.773,0.015-1.156-0.008c-0.767-0.029-1.521-0.056-2.246-0.137c-0.362-0.038-0.722-0.059-1.068-0.11l-1.019-0.149
			c-0.331-0.043-0.65-0.109-0.959-0.169c-0.309-0.06-0.607-0.114-0.892-0.184c-0.567-0.133-1.087-0.262-1.539-0.4
			c-0.452-0.138-0.845-0.268-1.167-0.373C712.719,134.707,712.369,134.54,712.369,134.54z"/>
		<path fill="#FFFFFF" d="M712.377,134.516c0.983,0.295,1.979,0.532,2.993,0.701c1.011,0.202,2.025,0.312,3.045,0.423
			c1.021,0.112,2.046,0.141,3.073,0.17c1.029,0.054,2.046,0.006,3.066-0.014c1.029-0.084,2.043-0.102,3.063-0.243
			c1.023-0.1,2.026-0.249,3.044-0.425c1.019-0.168,1.997-0.376,3.006-0.601c1.005-0.2,1.992-0.505,2.994-0.732
			c0.106-0.027,0.215,0.038,0.241,0.145c0.025,0.099-0.034,0.202-0.128,0.236c-0.98,0.339-1.957,0.717-2.956,0.989l-0.765,0.225
			l-0.754,0.192c-0.497,0.121-1.01,0.272-1.52,0.362l-1.526,0.297l-1.559,0.207l-0.771,0.1l-0.789,0.055l-1.565,0.107l-1.564-0.012
			c-0.517-0.001-1.055-0.03-1.563-0.077c-1.033-0.074-2.083-0.148-3.103-0.33c-0.516-0.078-1.018-0.181-1.539-0.285
			c-0.507-0.103-1.022-0.23-1.515-0.376c-0.497-0.137-0.999-0.293-1.485-0.475c-0.495-0.155-0.969-0.393-1.442-0.593
			c-0.013-0.005-0.019-0.02-0.013-0.033C712.351,134.518,712.365,134.513,712.377,134.516z M712.379,134.517
			c0.493,0.176,0.96,0.379,1.465,0.506c0.497,0.154,0.992,0.277,1.502,0.387c0.508,0.132,1.001,0.24,1.514,0.329
			c0.498,0.084,1.015,0.175,1.526,0.237c1.028,0.151,2.052,0.192,3.088,0.237c0.526,0.033,1.024,0.044,1.545,0.03l1.546-0.031
			l1.537-0.104l0.763-0.052l0.771-0.099l1.523-0.201l1.527-0.294c0.514-0.083,0.998-0.22,1.51-0.336l0.757-0.18l0.73-0.204
			c1.007-0.258,1.973-0.615,2.956-0.939l0.113,0.381c-1.005,0.216-1.986,0.506-2.999,0.695c-0.999,0.21-2.033,0.417-3.043,0.571
			c-1.009,0.162-2.039,0.303-3.062,0.39c-1.019,0.128-2.063,0.135-3.081,0.206c-1.033,0.005-2.072,0.034-3.094-0.035
			c-1.026-0.046-2.055-0.092-3.076-0.221c-1.018-0.127-2.047-0.257-3.048-0.475c-1.008-0.185-2.012-0.44-2.99-0.751L712.379,134.517
			z"/>
	</g>
</g>
</svg>
